<svg xmlns="http://www.w3.org/2000/svg" viewBox="0 0 350 250">
    <defs>
        <style>.bg-color{fill:#404040;fill-rule:evenodd;}</style>
    </defs>
    <title>Agile</title>
    <path class="bg-color" d="M220,87.11a2.05,2.05,0,0,0,0-3,2.08,2.08,0,0,0-1.44-.68,2.17,2.17,0,0,0-1.61.68,2.25,2.25,0,0,0,0,3,2.11,2.11,0,0,0,1.61.59,2,2,0,0,0,1.44-.59Z"/>
    <path class="bg-color" d="M229.94,88.54a1.67,1.67,0,0,0-1.18-.51A1.73,1.73,0,0,0,227,89.81a2,2,0,0,0,.51,1.27,1.66,1.66,0,0,0,1.27.42,1.58,1.58,0,0,0,1.18-.42,2,2,0,0,0,.51-1.27,1.72,1.72,0,0,0-.51-1.27Z"/>
    <path class="bg-color" d="M181.81,145a4.92,4.92,0,0,0-3.64-1.52,5.2,5.2,0,0,0-5.07,5.08,4.92,4.92,0,0,0,1.52,3.64,4.87,4.87,0,0,0,3.55,1.52,4.92,4.92,0,0,0,3.64-1.52,5,5,0,0,0,0-7.19Z"/>
    <path class="bg-color" d="M167,156.38a3.66,3.66,0,0,0-2.88,1.27,3.13,3.13,0,0,0-1.18,2.71,3.44,3.44,0,0,0,1.18,2.88,3.89,3.89,0,0,0,2.88,1.18,4.18,4.18,0,0,0,2.88-1.18,4,4,0,0,0,1.1-2.88,3.57,3.57,0,0,0-1.1-2.71,3.92,3.92,0,0,0-2.88-1.27Z"/>
    <path class="bg-color" d="M126.49,158.92a1.8,1.8,0,0,0-.59,1.27,1.78,1.78,0,0,0,.59,1.18,1.54,1.54,0,0,0,1.18.51,1.86,1.86,0,0,0,1.27-.51,1.67,1.67,0,0,0,.51-1.18,1.72,1.72,0,0,0-.51-1.27,1.87,1.87,0,0,0-1.27-.51,1.54,1.54,0,0,0-1.18.51Z"/>
    <path class="bg-color" d="M139.52,162.72a2.06,2.06,0,0,0-1.69-.68,2,2,0,0,0-1.61.68,2.31,2.31,0,0,0-.68,1.61,2.51,2.51,0,0,0,.68,1.69,2.23,2.23,0,0,0,1.61.59,2.31,2.31,0,0,0,1.69-.59,2.1,2.1,0,0,0,.59-1.69,1.93,1.93,0,0,0-.59-1.61Z"/>
    <path class="bg-color" d="M150.09,167.63a2.56,2.56,0,0,0,3.81,0,2.32,2.32,0,0,0,.76-1.86,2.38,2.38,0,0,0-.76-1.95,2.62,2.62,0,0,0-1.86-.76,2.61,2.61,0,0,0-2.71,2.71,2.62,2.62,0,0,0,.76,1.86Z"/>
    <path class="bg-color" d="M206.25,82.29a2.49,2.49,0,0,0-1.86-.76,2.68,2.68,0,0,0-1.95.76,2.62,2.62,0,0,0-.76,1.86,2.61,2.61,0,0,0,2.71,2.71,2.49,2.49,0,0,0,1.86-.76,2.75,2.75,0,0,0,.85-1.95,2.72,2.72,0,0,0-.85-1.86Z"/>
    <path class="bg-color" d="M192.3,86.68a4.08,4.08,0,0,0-5.75,0,4,4,0,0,0-1.18,2.88,3.84,3.84,0,0,0,1.18,2.79,4.08,4.08,0,0,0,5.75,0,3.84,3.84,0,0,0,1.18-2.79,4,4,0,0,0-1.18-2.88Z"/>
    <path class="bg-color" d="M181.81,97.76a4.92,4.92,0,0,0-3.64-1.52,5.05,5.05,0,0,0-5.07,5.16,5.13,5.13,0,0,0,1.44,3.55,5.2,5.2,0,0,0,3.64,1.52,5.36,5.36,0,0,0,5.16-5.08,4.92,4.92,0,0,0-1.52-3.64Z"/>
    <path class="bg-color" d="M194.5,102.59c-2,.85-4,1.86-5.92,2.71v25.46c-.08,5,3.72,7.53,11.5,7.53v-4a6.34,6.34,0,0,1-4-1.1A3.78,3.78,0,0,1,194.5,130v-27.4Z"/>
    <path class="bg-color" d="M216.57,112.4a17.37,17.37,0,0,0-10.66,3.3,11.61,11.61,0,0,0-5.08,9.9,11.23,11.23,0,0,0,4.91,9.47,18,18,0,0,0,10.74,3.21,33.6,33.6,0,0,0,8-.93,28.4,28.4,0,0,0,6.6-2.88l-2.45-3.21c-4.74,2.54-7.53,3.21-11,3.21a11.69,11.69,0,0,1-7.19-2,7.58,7.58,0,0,1-3.3-6.68h24.11a9.53,9.53,0,0,0,.42-2.71,9.06,9.06,0,0,0-3.89-7.7c-2.71-1.95-6.43-3-11.16-3ZM210.14,118a11.13,11.13,0,0,1,6.68-1.86,10.64,10.64,0,0,1,6.68,1.95,5.49,5.49,0,0,1,2.28,4.48H207.27a6.8,6.8,0,0,1,2.88-4.57Z"/>
    <path class="bg-color" d="M114.57,114.85l2.54,3.72c1.95-1.52,4.82-2.28,8.54-2.28,4.82,0,7.19,2,7.19,6.09a16.33,16.33,0,0,0-4.23-.59c-4.57,0-8.37.85-11.25,2.62s-4.48,3.89-4.48,6.43a6.38,6.38,0,0,0,2.88,5.33,10.76,10.76,0,0,0,6.77,2.11c4.91,0,8.54-1.18,10.91-3.38a4.82,4.82,0,0,0,2.62,2.54,12.65,12.65,0,0,0,5.41.85V136a4.24,4.24,0,0,1-2.62-4.31v-9c0-3.64-1.1-6.26-3.3-8s-5.75-2.37-10.57-2.37a22.25,22.25,0,0,0-5.67.76,16,16,0,0,0-4.74,1.69Zm14.38,10.23a38.93,38.93,0,0,1,3.89.42v6.09a11.2,11.2,0,0,1-7.87,3.13c-4.14,0-6.17-1.27-6.17-3.81,0-1.61.93-3,2.79-4.14a14.57,14.57,0,0,1,7.36-1.69Z"/>
    <path class="bg-color" d="M146.37,114.93c-2.37,1.78-3.64,4-3.55,6.51,0,4.14,2.37,7,7,8.63a12.51,12.51,0,0,0-4.14,1.44c-1.1.68-1.69,1.44-1.69,2.28q0,4.06,7.1,4.06c1-.08,2.37-.17,4.14-.42a25.91,25.91,0,0,1,3.55-.34c4,0,5.92.93,5.92,3-.08,1-.85,1.86-2.37,2.62a15.83,15.83,0,0,1-6.26,1,22.38,22.38,0,0,1-9.64-2.62l-3.21,3.55a21.86,21.86,0,0,0,5.84,2.11,27.94,27.94,0,0,0,6.77.85,22.47,22.47,0,0,0,10.49-2.11c2.79-1.44,4.14-3.3,4.14-5.58a5.7,5.7,0,0,0-2.71-4.91,15.27,15.27,0,0,0-7.7-1.69,34.81,34.81,0,0,0-4.31.34,31.62,31.62,0,0,1-4.14.34c-2,0-3-.34-3-.93s.51-.85,1.52-1.1a7,7,0,0,1,2.28-.51l4.91-.42a14.19,14.19,0,0,0,8.29-3,8.27,8.27,0,0,0,.93-12.1l3.47-2-3.81-2.71-3,2.62a18,18,0,0,0-7.78-1.44,15.62,15.62,0,0,0-9.05,2.54Zm4.4,2.62a7.33,7.33,0,0,1,5.08-1.61,6.81,6.81,0,0,1,4.82,1.61,5.17,5.17,0,0,1,1.95,4,5.7,5.7,0,0,1-1.86,4.4,6.87,6.87,0,0,1-4.91,1.61,7.1,7.1,0,0,1-5.08-1.69,5.26,5.26,0,0,1-1.86-4.31,4.83,4.83,0,0,1,1.86-4Z"/>
    <polygon class="bg-color" points="182.4 112.82 171.91 112.82 171.91 116.54 176.48 116.54 176.48 137.86 182.4 137.86 182.4 112.82 182.4 112.82"/>
    <polygon class="bg-color" points="233.91 123.22 233.91 125.68 234.17 125.68 234.17 123.22 234.76 123.22 234.76 123.06 233.32 123.06 233.32 123.22 233.91 123.22 233.91 123.22"/>
    <polygon class="bg-color" points="235.35 125.68 235.1 125.68 235.1 123.06 235.52 123.06 236.11 125.34 236.11 125.34 236.79 123.06 237.13 123.06 237.13 125.68 236.87 125.68 236.87 123.22 236.87 123.22 236.28 125.68 236.03 125.68 235.35 123.22 235.35 123.22 235.35 125.68 235.35 125.68"/>
</svg>