<svg xmlns="http://www.w3.org/2000/svg" viewBox="0 0 342 480"><path d="M68.37.96l63-.1c.05 6.57.15 13.14-.1 19.7-14.55-.1-29.1 0-43.63.1l-.2 28.62 43.8.17c.17 5.4.1 10.82-.05 16.23l-62.82-.06V.96zm70.5-.06l63.8.07-.02 18.62c-15.47-.05-30.95.02-46.42.2v7.32l46.33.37.1 38.17a9694.61 9694.609 0 0 0-63.81.08c-.1-5.14-.12-10.27.03-15.4l44.23-.06.12-9.94c-14.8 0-29.63.05-44.44-.05L138.86.9zm70.9.1h63.67c.1 6.24.18 12.48-.02 18.7-15.54-.01-31.08.08-46.62.1l.23 7.65 46.34.28.06 38c-21.27-.06-42.54-.06-63.8.04-.13-5.12-.17-10.26.05-15.38l44.15-.05.08-9.95H209.58l.2-39.43z"/><path d="M0 92.46h341.75l-31.07 348.3L238 461.02 170.85 480h-.66l-63.96-18.2-75.03-21.03-25.87-289.8L0 94.33v-1.87m171.4 27.95l-.24 40.83c-39.08-.14-78.17-.03-117.25.01.67 13.2 2.44 26.33 4.26 39.43 36.36 1.35 72.77-.05 109.13 1.04L71.35 243.4c-2.74 1.22-5.67 2.14-8.12 3.92.27 14.5 2.6 28.94 3.64 43.42l58.13-.4 46.6-.1c-.74 23.86.23 47.75-.5 71.6-10.45-1.55-20.77-3.88-31.18-5.73-8.2-1.8-16.62-2.72-24.7-5.07l-2.97-34.4c-2.34-.72-4.82-.65-7.24-.7-11.74.07-23.5-.04-35.24.14 1.15 22.03 3.13 44.03 6.5 65.85l34.74 9.13c17.7 4.82 35.64 8.83 53.38 13.57 2.1.45 4.24 1.23 6.43 1.05 1.18 14.5.27 29.07.5 43.6 4.1-.66 8.1-1.67 12.06-2.9l100.68-27.62c1.67-13.2 2.45-26.5 3.77-39.72l10.67-120.65 12.32-138.05c-46.47.04-92.93-.1-139.4.06z" fill="#0170ba"/><path d="M171.4 120.4l139.4-.06-12.32 138.05-10.67 120.65c-1.32 13.23-2.1 26.52-3.77 39.72L183.36 446.4c-3.95 1.22-7.97 2.23-12.06 2.9-.22-14.53.7-29.1-.5-43.6l1.2-.24 93.4-24.6 11.08-132.67-79.5.17c-3.86.02-7.72 0-11.56-.28 14.26-7.34 29.26-13.16 43.9-19.7l42.37-18.6c2.72-1.25 5.62-2.3 8-4.15.94-3.45.9-7.06 1.26-10.6.8-11.2 2.25-22.34 2.8-33.55l-112.6-.24c.42-13.6 0-27.22.24-40.83zm.2 169.82c18.12-.3 36.25.18 54.38.06l-3.5 55.56c-11.1 3.63-22.4 6.7-33.6 10.06-5.97 1.82-12.1 3.26-17.78 5.93.73-23.86-.24-47.75.5-71.6z" fill="#29a9df"/><path d="M53.92 161.25l117.25-.01.43 128.98c-15.53.34-31.07.03-46.6.1l-58.13.4c-1.03-14.48-3.37-28.9-3.64-43.42 2.45-1.78 5.38-2.7 8.12-3.92l95.96-41.68c-36.36-1.1-72.77.3-109.13-1.04-1.82-13.1-3.6-26.22-4.26-39.43zm15.84 154.83l35.24-.14c2.42.04 4.9-.03 7.24.7l2.97 34.4c8.1 2.35 16.5 3.28 24.7 5.07 10.4 1.85 20.73 4.18 31.18 5.73 1 14.52-.75 29.14.92 43.6l-1.2.24c-2.2.18-4.32-.6-6.43-1.05L111 391.06l-34.74-9.13c-3.37-21.82-5.35-43.82-6.5-65.85z" fill="#cfcfcf"/><path d="M171.17 161.24l112.6.24c-.54 11.2-1.98 22.35-2.8 33.55-.37 3.53-.32 7.14-1.26 10.6-2.4 1.86-5.3 2.9-8 4.15l-42.37 18.6c-14.64 6.55-29.64 12.37-43.9 19.7 3.84.28 7.7.3 11.56.28l79.5-.17c-2.77 44.3-7.14 88.47-11.08 132.67l-93.4 24.6c-1.67-14.47.08-29.1-.92-43.6 5.68-2.67 11.8-4.1 17.78-5.93l33.6-10.06 3.5-55.56c-18.13.12-36.26-.37-54.38-.06l-.43-128.98z" fill="#fff"/></svg>
