<svg xmlns="http://www.w3.org/2000/svg" viewBox="0 0 272.962 114.013"><path d="M163.6 38.806c-5.985 0-10.443 2.94-10.443 10.012 0 5.33 2.938 9.028 10.12 9.028 6.087 0 10.223-3.587 10.223-9.25 0-6.416-3.7-9.792-9.9-9.792zm-11.966 49.94c-1.416 1.738-2.827 3.585-2.827 5.764 0 4.35 5.545 5.657 13.163 5.657 6.3 0 14.905-.442 14.905-6.308 0-3.487-4.135-3.703-9.36-4.03l-15.88-1.082zm32.2-49.6c1.955 2.503 4.025 5.985 4.025 11 0 12.076-9.465 19.146-23.17 19.146-3.485 0-6.64-.434-8.596-.977l-3.6 5.765 10.66.65c18.822 1.2 29.915 1.744 29.915 16.207 0 12.514-10.985 19.582-29.915 19.582-19.7 0-27.196-5.005-27.196-13.598 0-4.898 2.176-7.503 5.984-11.098-3.6-1.518-4.786-4.236-4.786-7.175 0-2.395 1.195-4.57 3.156-6.638s4.133-4.135 6.744-6.528c-5.33-2.6-9.356-8.268-9.356-16.32 0-12.5 8.27-21.1 24.9-21.1 4.68 0 7.5.43 10 1.088h21.215v9.245l-10 .762m29.15-19.77c-6.202 0-9.8-3.593-9.8-9.796 0-6.195 3.6-9.57 9.8-9.57 6.3 0 9.9 3.375 9.9 9.57 0 6.203-3.6 9.796-9.9 9.796zM198.94 84.743v-8.6l5.55-.76c1.524-.22 1.74-.544 1.74-2.18V41.23c0-1.194-.325-1.96-1.416-2.282l-5.874-2.07 1.196-8.8h22.52v45.144c0 1.744.105 1.96 1.74 2.18l5.55.76v8.6H198.94m74.026-4.237c-4.68 2.282-11.533 4.35-17.736 4.35-12.945 0-17.84-5.216-17.84-17.515v-28.5c0-.65 0-1.1-.874-1.1h-7.614V28.1c9.576-1.1 13.38-5.878 14.577-17.736h10.336v15.453c0 .76 0 1.088.87 1.088h15.337V37.77h-16.2v26c0 6.42 1.525 8.92 7.396 8.92 3.05 0 6.2-.76 8.813-1.74l2.94 9.576m-161.184-28.55L62.035 2.238a7.34 7.34 0 0 0-10.375 0l-10.33 10.33L54.434 25.67a8.71 8.71 0 0 1 8.964 2.088c2.44 2.443 3.124 5.964 2.07 9.02l12.628 12.628c3.055-1.053 6.58-.373 9.02 2.07a8.73 8.73 0 1 1-12.349 12.345c-2.565-2.566-3.2-6.334-1.9-9.494L61.1 42.55V73.55c.832.412 1.616.96 2.3 1.65a8.75 8.75 0 0 1 0 12.348 8.73 8.73 0 0 1-12.345 0 8.75 8.75 0 0 1 0-12.348 8.77 8.77 0 0 1 2.858-1.905V42a8.63 8.63 0 0 1-2.858-1.905c-2.583-2.58-3.205-6.372-1.88-9.544L36.256 17.643 2.15 51.747a7.34 7.34 0 0 0 0 10.379l49.742 49.738a7.34 7.34 0 0 0 10.376 0l49.5-49.508c2.865-2.867 2.865-7.514 0-10.38" fill="#100f0d"/></svg>
