<svg xmlns="http://www.w3.org/2000/svg" viewBox="0 0 320 450"><path d="M40.845 401.254L13.775 97.632h297.45l-27.098 303.573-121.81 33.77z" fill="#EFC725"/><path d="M162.25 408.787l98.428-27.287 23.158-259.417H162.25z" fill="#FBDE34"/><path d="M162.193 331.426l-.162.047-41.472-11.2-2.653-29.697h-37.38l5.217 58.468 76.277 21.176.172-.05zm5.017-59.49V234.7h-45.854l5.377-58.442 40.58-1.08-.103-38.723H93.065l-2.754 27.45-9.66 108.034h10.035z" fill="#EBEBEB"/><g fill="#fff"><path d="M166.957 175.23l.163-.046 40.67 2.45 3.45 38.447h37.38l-6.514-71.946-74.98-7.696-.172.048z"/><path d="M244.784 175.343l-3.2-38.9H163v38.9h81.794m-82.73 59.375v37.236h45.854l-4.322 48.293-41.532 11.212v38.74l76.34-21.158 10.22-114.325H238.6zM240 173.693"/></g><path d="M214.945 30.57h-24.69l25.676 27.86v13.26H163.05V56.165h25.67l-25.67-27.86v-13.28h51.896V30.57z" fill="#151515"/><path d="M153.63 15.05v56.617h-45.543V52.953H134.7V15.05h18.93z" fill="#020202"/><path d="M239.5 173.693" fill="#fff"/></svg>
