<svg xmlns="http://www.w3.org/2000/svg" xmlns:xlink="http://www.w3.org/1999/xlink" viewBox="0 0 278.4 70.7"><g fill="#0769AD"><path d="M107.2 63c0 .6-.1 1.2-.1 1.9l2.5-4.5-.3-1.5 2.5-.4.9 6.3 1.1-3.9c.1-.4.1-.7.1-1s0-.6-.1-1l2.6-.5c.1.5.2 1 .1 1.5 0 .6-.2 1.3-.6 2.4l-2.1 5.7h-3.1l-.7-4.2-2.4 4.2h-3c.1-3.9 0-6.4-.3-9l2.6-.4c.3 1.3.4 2.8.3 4.4zm16.2-2.2a25.43 25.43 0 0 0-2.8 1.6l-1.2 5.5h-2.7l1.9-9.1 2.4-.4-.1 1.3 2.5-1.3v2.4zm1.6-2l2.8-.4-2 9.5h-2.7l1.9-9.1zm.9-4.1l2.8-.4-.6 2.9-2.8.4.6-2.9zm6.9 6l-1 4.6v.2c0 .1.1.2.3.2.5 0 1-.2 1.5-.4l.5 1.9c-.8.4-1.9.8-3 .8-1.4 0-2.1-.7-2-1.8 0-.1 0-.3.1-.4l1.1-5.2h-1.4l.5-2.2h1.4l.5-2.2 2.8-.4-.5 2.6h2.2l-.6 2.2h-2.4z"/><use xlink:href="#B"/><path d="M150.4 54.8l2.8-.4-2.8 13.5h-2.7l2.7-13.1z"/><use xlink:href="#B" x="17.5"/><use xlink:href="#C"/><use xlink:href="#C" x="7.7"/><path d="M176.3 70l1.5-2.1h-1l.7-3.2h2.7l-.7 3.4-2.2 2.6-1-.7zm14.7-2.1v-.8c-.7.6-1.7 1-3 1-2 0-2.5-1.2-2-3.3l.5-2.5c.5-2.2 1.1-3.9 5-3.9.3 0 .9 0 1.1.1l.8-3.7 2.8-.4-2.8 13.5H191zm-2.5-2.8c-.1.5 0 .7.5.7 1 0 1.7-.5 2.2-1l.9-4.1c-.3-.1-.7-.1-1-.1-1.4 0-1.7.7-1.9 1.6l-.7 2.9z"/><use xlink:href="#D"/><path d="M221.3 61.6v-.3c0-.2-.1-.3-.4-.3-.5 0-1.7.5-2.5.9l-1.3 6h-2.7l1.3-6.3v-.3c0-.2-.1-.3-.4-.3-.5 0-1.7.5-2.4.9l-1.3 6h-2.7l1.9-9.1 2.4-.4-.1 1c1.5-.7 2.6-1.1 3.7-1.1.9 0 1.4.4 1.6 1.1 1.4-.8 2.7-1.1 3.8-1.1 1.2 0 1.7.7 1.6 1.9 0 .3 0 .7-.1 1.1l-1.4 6.5H220l1.3-6.2z"/><use xlink:href="#D" x="29.3"/><path d="M241.2 60.8a25.43 25.43 0 0 0-2.8 1.6l-1.2 5.5h-2.7l1.9-9.1 2.4-.4-.1 1.3 2.5-1.3v2.4zm.7 1.1c.5-2.1 1.5-3.5 4.4-3.5 1.8 0 3.1.8 3 2.3-.1 1.8-1 2.7-3.3 3.3l-2 .6-.1.6c-.1.3 0 .7.5.7 1 0 2.4-.5 3.7-1l.4 1.9c-1.2.7-3 1.3-4.6 1.3-1.9 0-2.7-.8-2.7-2.4 0-.3.1-.7.2-1.1l.5-2.7zm4.9-.9c0-.3-.3-.5-.8-.5-1 0-1.3.6-1.4 1.3l-.1.7 1.2-.3c.7-.3 1-.6 1.1-1.2zm3.6 3.7h2.7l-.7 3.2h-2.7l.7-3.2zM3.3 13.4c-4.6 6.5-4 15.1-.5 22 0 .2.1.4.2.6 0 .1.1.2.2.3 0 .1.1.1.1.2.1.1.1.2.2.3l.3.6c.1.1.1.2.2.3.1.2.3.4.4.6.1.1.1.2.2.3.2.3.4.5.6.8l.1.1c.2.2.3.5.5.7.1.1.1.2.2.2.2.2.3.4.5.6l.2.2c.2.3.4.5.7.7.2.2.4.5.7.7l.9.9c.2.2.5.4.7.7l.1.1c.2.2.4.4.7.6.1.1.2.1.3.2.2.1.4.3.6.4.1.1.2.1.3.2.2.2.4.3.6.4l.2.2h.1c.2.1.4.3.6.4.1.1.2.1.3.2l.9.6c.1 0 .2.1.3.1.2.1.5.3.7.4.1.1.3.1.4.2.2.1.3.2.5.3 0 0 .1 0 .1.1.1 0 .1.1.2.1.3.1.5.3.8.4.1 0 .1 0 .2.1.3.1.6.3.9.4.1 0 .1.1.2.1l.9.3h.1c.3.1.7.2 1 .3.1 0 .2.1.2.1.3.1.7.2 1 .3 22 4 28.4-13.2 28.4-13.2-5.4 7-14.9 8.8-24 6.8-.3-.1-.7-.2-1-.3-.1 0-.2 0-.2-.1-.3-.1-.7-.2-1-.3 0 0-.1 0-.1-.1l-.9-.3c-.1 0-.2-.1-.2-.1-.3-.1-.6-.3-.9-.4-.1 0-.1-.1-.2-.1-.3-.1-.5-.2-.8-.4-.1 0-.1-.1-.2-.1l-.6-.3c-.1-.1-.3-.1-.4-.2-.2-.1-.5-.3-.7-.4-.1-.1-.2-.1-.2-.1l-.9-.6c-.1-.1-.2-.1-.3-.2-.2-.1-.5-.3-.7-.4l-.2-.2c-.2-.1-.4-.3-.6-.5-.1-.1-.2-.1-.3-.2-.2-.1-.4-.3-.6-.4-.1-.1-.2-.1-.3-.2-.2-.2-.5-.4-.7-.6 0 0-.1 0-.1-.1l-.9-.9c-.2-.2-.4-.3-.5-.5l-.2-.2c-.2-.2-.4-.5-.7-.7-.2-.2-.4-.5-.7-.8l-.2-.2c-.2-.2-.3-.4-.5-.6l-.2-.2c-.3-.1-.5-.4-.7-.6-5-6.8-6.8-16.3-2.8-24m10.6-1.1c-3.3 4.8-3.1 11.1-.5 16.1.4.8.9 1.7 1.5 2.4.5.7 1 1.5 1.7 2.1.2.3.5.5.7.8l.2.2c.2.2.5.5.8.7.3.3.6.5.9.7l.2.2c.3.2.6.5.9.7.1.1.3.2.4.3.1 0 .1.1.2.1.2.1.5.3.7.4 0 0 .1 0 .1.1l.6.3c.1 0 .1.1.2.1.1.1.3.1.4.2h.1c.3.1.6.3.9.4.1 0 .1.1.2.1.2.1.5.2.7.3.1 0 .2.1.3.1.2.1.4.2.7.2.1 0 .2.1.3.1a12.59 12.59 0 0 0 1 .3c17 2.8 20.9-10.3 20.9-10.3-3.5 5.1-10.4 7.5-17.7 5.6a12.59 12.59 0 0 0-1-.3c-.1 0-.2-.1-.3-.1-.2-.1-.5-.1-.7-.2-.1 0-.2-.1-.3-.1-.2-.1-.5-.2-.7-.3-.1 0-.1-.1-.2-.1-.3-.1-.6-.3-.9-.4a.76.76 0 0 0-.4-.2c-.1 0-.2-.1-.3-.1l-.6-.3s-.1 0-.1-.1c-.2-.1-.5-.3-.7-.4-.1 0-.1-.1-.2-.1-.1-.1-.3-.2-.4-.3-.3-.2-.6-.4-.9-.7l-.2-.2c-3.2-2.5-5.7-6-6.9-9.9-1.3-4.1-1-8.6 1.2-12.3m9.1-.2c-1.9 2.9-2.1 6.4-.8 9.6 1.4 3.4 4.3 6 7.7 7.2.1.1.3.1.4.1s.1 0 .2.1c.2.1.4.1.6.2 9.4 1.8 11.9-4.8 12.6-5.8-2.2 3.2-6 4-10.6 2.9-.4-.1-.8-.2-1.1-.3-.4-.2-.9-.3-1.3-.5a17.61 17.61 0 0 1-2.3-1.4c-4.1-3.1-6.7-9.1-4-13.9"/></g><g fill="#333"><path d="M247 17.2l.4 1.6c.1.4-.2.8-.6.8m-29.4-5.1l-.3 1.3-3.3 15.2 3.4-16 .2-.5z"/><path d="M120 24.7l-1.8 6.4 1.8-6.4zm127.4-5.9l-.9-4c-.7-2.9-2.8-4.2-7.5-4.2h-19.8c-.5 0-.9.2-1 .7l-7.5 35.6c-.1.5-.1.8-.1 1 .1.2.9.2 1.4.2h6.9c.5 0 1.3 0 1.5-.1.3-.1.4-.8.5-1.2l2.4-12.5 3-13.9c.1-.4.5-.8 1-.8h19.6c.3 0 .6-.4.5-.8m27.9-14.5h-8.7c-.5 0-1 .5-1.3.9L250 27.6c-.3.4-.6.4-.7-.1l-1.1-4.9c-.1-.4-.6-.8-1-.8h-9.8c-.5 0-.7.4-.6.8l4.4 15.4c.1.4.1 1.2 0 1.6l-2.1 7.8c-.1.4.2.6.6.6h9.7c.5 0 .9-.1 1-.6l2.1-7.9c.1-.4.4-1 .7-1.4l24.9-33c.3-.4.2-.8-.2-.8h-2.6zm-102.2 6.3h-8.9c-.5 0-.9.2-1 .6l-2.9 13.7-2.9 13.1c-.1.4-.5.4-1 .4h-5.8c-5.8 0-5.1-3.6-3.9-9.1 0-.1 3.7-18.1 3.7-18.1.1-.4-.2-.6-.7-.6h-8.4c-.5 0-.9.2-1 .6l-3.4 18.1c-1.7 9.8-1.7 18.4 9.6 18.7h17.9c.5 0 .9-.2 1-.6l3.9-18.2 3.8-18.2s.2-.4 0-.4zm-88.2 0h-9.5c-.5 0-.9.1-1 .6l-1.7 7.4c-.1.4.2.8.7.8h9.1c.5 0 .9-.4 1-.9l1.6-7.5s.2-.4-.2-.4zM72.8 21.8c-.5 0-.9.4-1 .8l-1.3 5.7-2.9 13.1-1.7 7.4s-1.3 5-4.3 4.8c-1.4-.1-3-.4-3-.4-.9-.3-.9.6-1 1.1l-1.9 8.1c-.1.4.2.8.6.9 0 0 4.1.6 7 .6h.5c7.1 0 10.9-4.2 13.3-15.6l5.4-25.6c.1-.4-.2-.9-.6-.9m113.6-11.3c-16 0-19.8 9.9-21.9 19.6-2.1 10-1.9 17.9 14.6 17.9h15.1c.4 0 .9-.4 1-.9l1.6-6.3c.1-.4-.2-.6-.7-.6h-14.9c-5.4 0-7.3-1.7-7.1-5.4 0-.4.5-1.5.9-1.5H207c1 0 1-.6 1-.6 2.5-10.4 2.6-22.2-12.5-22.2m4.2 15.7c0 .5-1.6.4-1.6.4l-12.4-.1c-.4 0-.6-.6-.6-1 0 0 0-.5.1-.6 1-3.3 3.8-5.2 8.4-5.2 5.1 0 6.2 2.5 6.2 5.4m-73.3 12.6s4.5-10.9 5.5-17.1c1.4-8.4-2.8-20.6-19.1-20.6-16.1 0-23.1 11.6-25.8 24.3S87.9 48.1 104 48h24.5c.5 0 .9-.4 1-.8l2.1-7.9c.1-.4-.2-.8-.6-.8h-4c-.4 0-.6-.3-.6-.6.1 0 .1-.1.1-.2m-8.4-6.6l-1.8 6.3c-.1.4-.6.7-1.1.7h-9.5c-7.2 0-9-5.6-7.2-13.9 1.8-8.5 5.2-13.7 12.3-14.3 9.7-.7 11.7 6.1 9.3 14l-2 7.2z"/></g><defs ><path id="B" d="M136 61.9c.5-2.1 1.5-3.5 4.4-3.5 1.8 0 3.1.8 3 2.3-.1 1.8-1 2.7-3.3 3.3l-2 .6-.1.6c-.1.3 0 .7.5.7 1 0 2.4-.5 3.7-1l.4 1.9c-1.2.7-3 1.3-4.6 1.3-1.9 0-2.7-.8-2.7-2.4 0-.3.1-.7.2-1.1l.5-2.7zm4.9-.9c0-.3-.3-.5-.8-.5-1 0-1.3.6-1.4 1.3l-.1.7 1.2-.3c.7-.3 1.1-.6 1.1-1.2z"/><path id="C" d="M161.2 67.5l.6-2c.7.2 1.5.5 2.5.5.9 0 1-.3 1.1-.7s-.2-.6-1.2-1.2c-1.9-1-2-1.7-1.7-3.1.4-2 1-2.5 3.6-2.5.9 0 2 .2 2.8.4l-.5 2c-.7-.2-1.7-.3-2.3-.3-.8 0-.9.1-1 .6-.1.4 0 .5.9 1 2.1 1.1 2.4 1.5 2.1 3-.5 2.1-1.1 2.9-3.9 2.9-1 0-2.2-.3-3-.6z"/><path id="D" d="M195.8 65c0-.2 0-.4.1-.7l.5-2.2c.5-2.4 1.7-3.8 5-3.8 2.5 0 3.6 1.4 3.5 3.1 0 .2 0 .4-.1.7l-.5 2.2c-.5 2.2-1.6 3.8-5 3.8-2.4 0-3.6-1.4-3.5-3.1zm6.3-3.3c0-.7-.4-1.1-1.3-1.1-1 0-1.6.5-1.8 1.4l-.5 2.3c0 .1 0 .3-.1.4 0 .7.4 1.1 1.3 1.1 1 0 1.6-.5 1.8-1.4l.5-2.3c.1-.2.1-.3.1-.4z"/></defs></svg>