<svg xmlns="http://www.w3.org/2000/svg" width="810" height="425" viewBox="0 0 803.515 803.516"><path d="M-354.493 724.548h49.917V526.8l77.947 172.406c8.833 20.733 21.504 28.415 46.078 28.415s36.478-7.68 45.695-28.413L-57.292 526.8v197.75h50.3V526.8c0-19.2-7.68-28.415-23.807-33.406-38.012-11.52-63.357-1.534-74.876 24.2l-76.4 170.485-73.725-170.485c-11.136-25.725-36.864-35.7-75.262-24.2-15.742 4.992-23.422 14.207-23.422 33.406v197.75zM34.48 563.66h50.3v108.666c-.383 6.143 1.92 19.97 29.182 20.353 14.208.38 108.283 0 109.05 0V562.892h50.303v177.783c0 43.772-54.143 53.374-79.484 53.757H35.63v-33.406h158.583c32.255-3.453 28.415-19.582 28.415-24.96V723h-106.36c-49.534-.383-81.404-22.27-81.787-47.23V563.66zm1078.987-125.947c-30.718-.766-54.526 2.308-74.493 10.753-5.76 2.303-14.976 2.305-15.745 9.6 3.074 3.073 3.457 8.065 6.145 12.287 4.6 7.678 12.67 18.048 19.968 23.424 8.063 6.143 16.128 12.285 24.573 17.663 14.976 9.216 31.872 14.6 46.463 23.807 8.45 5.372 16.894 12.286 25.342 18.047 4.225 3.07 6.9 8.063 12.288 9.983v-1.15c-2.688-3.457-3.457-8.45-6.143-12.288-3.837-3.84-7.68-7.297-11.52-11.136-11.136-14.975-24.96-28.03-39.935-38.782-12.285-8.448-39.166-19.967-44.158-34.174.002 0-.385-.382-.768-.765 8.448-.77 18.43-3.84 26.496-6.145 13.056-3.456 24.96-2.688 38.398-6.143 6.143-1.537 12.288-3.456 18.43-5.376v-3.454c-6.9-6.914-11.902-16.128-19.2-22.656-19.582-16.898-41.086-33.406-63.357-47.23-11.905-7.68-27.264-12.673-39.935-19.2-4.606-2.308-12.288-3.456-14.974-7.297-6.914-8.448-10.753-19.582-15.745-29.567-11.13-21.122-21.887-44.54-31.487-66.813-6.9-14.975-11.134-29.952-19.582-43.773-39.55-65.276-82.556-104.826-148.6-143.6-14.208-8.064-31.1-11.52-49.15-15.744l-28.8-1.537c-6.138-2.697-12.283-10-17.658-13.447-21.882-13.824-78.33-43.772-94.458-4.223-10.368 24.958 15.36 49.532 24.2 62.205 6.53 8.83 14.976 18.814 19.584 28.8 2.688 6.523 3.454 13.44 6.143 20.35 6.145 16.9 11.903 35.7 19.968 51.456 4.225 8.062 8.83 16.5 14.208 23.805 3.07 4.223 8.446 6.145 9.6 13.056-5.374 7.68-5.76 19.2-8.833 28.8-13.822 43.388-8.446 97.146 11.136 129.016 6.143 9.597 20.736 30.72 40.318 22.656 17.28-6.912 13.44-28.8 18.43-47.998 1.154-4.6.385-7.68 2.688-10.75v.768l15.742 31.87c11.905 18.813 32.638 38.398 49.917 51.454 9.22 6.9 16.513 18.814 28.032 23.04v-1.154h-.768c-2.305-3.457-5.76-4.992-8.83-7.68-6.9-6.9-14.593-15.36-19.967-23.037-16.125-21.505-30.335-45.3-43.006-69.886-6.143-11.9-11.52-24.96-16.5-36.862-2.305-4.6-2.305-11.52-6.145-13.822-5.76 8.446-14.205 15.743-18.43 26.1-7.292 16.5-8.063 36.86-10.75 57.98-1.535.386-.768 0-1.537.77-12.285-3.073-16.5-15.743-21.12-26.496-11.52-27.26-13.44-71.036-3.454-102.52 2.688-8.065 14.208-33.405 9.6-41.086-2.303-7.297-9.985-11.52-14.208-17.28-5-7.298-10.368-16.5-13.822-24.575-9.217-21.502-13.825-45.3-23.807-66.813-4.608-9.985-12.67-20.35-19.2-29.564-7.294-10.368-15.36-17.665-21.12-29.953-1.917-4.223-4.608-11.134-1.537-15.744.768-3.07 2.303-4.223 5.377-5 5-4.225 19.2 1.15 24.2 3.454 14.208 5.757 26.1 11.135 38.015 19.2 5.374 3.84 11.134 11.136 18.045 13.055h8.065c12.288 2.685 26.1.768 37.63 4.223 20.353 6.526 38.78 16.128 55.294 26.496 50.303 31.87 91.77 77.18 119.802 131.322 4.608 8.827 6.526 16.896 10.75 26.1 8.065 18.818 18.047 38.017 26.1 56.446 8.063 18.046 15.742 36.48 27.262 51.455 5.762 8.06 28.8 12.284 39.166 16.5 7.68 3.454 19.585 6.53 26.496 10.75 13.054 8.06 26.1 17.28 38.398 26.1 6.145 4.606 25.342 14.207 26.496 21.884zm-391.663-333.68c-6.528 0-11.134.77-15.742 1.922 0-.004 0 .386 0 .77h.768c3.074 6.143 8.445 10.368 12.285 15.742 3.074 6.143 5.76 12.288 8.833 18.434l.766-.77c5.38-3.84 8.065-9.985 8.065-19.2-2.305-2.688-2.688-5.376-4.608-8.065-2.303-3.842-7.297-5.76-10.368-8.834z" fill="#00546b"/><path d="M311.714 724.548h144.378c16.894 0 33.02-3.454 46.075-9.6 21.9-9.982 32.255-23.42 32.255-41.086V637c0-14.205-11.905-27.644-35.7-36.86-12.285-4.606-27.647-7.294-42.623-7.294h-60.666c-20.353 0-29.952-6.145-32.64-19.585-.385-1.534-.385-3.07-.385-4.606V546c0-1.15 0-2.688.385-4.223 2.688-10.368 8.063-13.056 25.727-14.976h147.835v-33.406h-140.54c-20.35 0-31.1 1.15-40.7 4.225-29.567 9.2-42.623 23.805-42.623 49.53v29.185c0 22.653 25.344 41.852 68.35 46.46 4.608.382 9.6.382 14.6.382h51.837c1.92 0 3.84 0 5.377.386 15.742 1.534 22.653 4.223 27.262 9.982 3.07 3.07 3.84 5.76 3.84 9.217l.002 29.18c0 3.457-2.305 8.067-6.914 11.907s-11.905 6.53-21.504 6.912c-1.917 0-3.07.383-5 .383l-138.616-.003v33.4zm535.27-57.98c0 34.17 25.727 53.37 77.18 57.212 5 .386 9.6.768 14.6.768h130.558v-33.4H937.604c-29.18 0-40.32-7.3-40.32-24.957l.002-172.8h-50.303v173.176zm-280.692 1.535V549.07c0-30.333 21.502-48.766 63.357-54.524 4.6-.387 9.216-.766 13.44-.766l95.227-.003c4.996 0 9.216.386 14.208.77 41.855 5.757 62.974 24.19 62.974 54.524l.002 119.034c0 24.574-8.834 37.633-29.57 46.463l49.15 44.54H777.1l-39.935-36.095-40.318 2.303h-53.76c-8.83 0-18.816-1.15-29.182-3.84-31.872-8.83-47.614-25.727-47.614-53.374zm54.14-2.687c0 1.533.768 3.073 1.154 4.992 2.686 13.822 15.742 21.502 35.7 21.502h45.3l-41.47-37.633h57.982l36.476 33.024c6.916-3.84 11.136-9.214 12.673-16.125.383-1.537.383-3.457.383-4.994V552.14c0-1.534 0-3.07-.383-4.607-2.688-13.055-15.745-20.353-35.327-20.353h-75.645c-22.27 0-36.864 9.6-36.864 24.958v113.273zm471.915 59.515h7.297V696.9h9.6v-5.76h-26.88v5.76h9.985v28.03zm55.68 0h6.9v-33.792h-10.365l-8.45 23.04-9.212-23.04h-9.985v33.792h6.528v-25.727h.383l9.6 25.727h4.994l9.6-25.727v25.727z" fill="#c67f07"/></svg>