<?xml version="1.0" encoding="UTF-8"?>
<svg version="1.1" viewBox="0 0 283 283" xmlns="http://www.w3.org/2000/svg" xmlns:cc="http://creativecommons.org/ns#" xmlns:dc="http://purl.org/dc/elements/1.1/" xmlns:rdf="http://www.w3.org/1999/02/22-rdf-syntax-ns#">
<metadata>
<rdf:RDF>
<cc:Work rdf:about="">
<dc:format>image/svg+xml</dc:format>
<dc:type rdf:resource="http://purl.org/dc/dcmitype/StillImage"/>
<dc:title/>
</cc:Work>
</rdf:RDF>
</metadata>
<ellipse cx="137.3" cy="139.1" rx="126.51" ry="131.91" fill="#fff"/>
<path d="m118.7 277.4c-29.765-5.2665-55.292-18.855-76.387-40.662-17.941-18.547-30.287-41.903-35.908-67.932-2.4273-11.24-2.4273-43.404 0-54.644 3.7985-17.589 11.176-35.066 21.234-50.299 6.6591-10.086 26.156-29.583 36.242-36.242 15.233-10.058 32.71-17.435 50.299-21.234 11.24-2.4273 43.404-2.4273 54.644 0 27.406 5.9185 50.178 18.293 69.83 37.945 19.652 19.652 32.026 42.424 37.945 69.83 2.4273 11.24 2.4273 43.404 0 54.644-5.9185 27.406-18.292 50.178-37.945 69.83-19.342 19.342-41.823 31.687-68.774 37.765-9.5579 2.1556-41.157 2.7727-51.179 0.99943zm24.742-27.328c0-8.9749-0.13045-9.6217-1.9405-9.6217-1.7964 0-1.9344 0.61948-1.8585 8.342 0.0897 9.1215 0.73096 11.924 2.5867 11.306 0.86091-0.28696 1.2123-3.1931 1.2123-10.026zm-14.457 3.0886c2.5542-2.5542 3.2989-4.1034 3.2989-6.8629 0-2.814-0.34268-3.4981-1.6282-3.2504-0.8955 0.17253-1.9702 1.6236-2.3882 3.2245-0.418 1.6009-2.1352 4.0746-3.8161 5.4971-3.027 2.5617-3.1452 4.6906-0.26047 4.6906 0.82234 0 2.9796-1.4845 4.794-3.2989zm31.972 2.2468c0.35764-0.57867-0.72499-2.216-2.4059-3.6385-1.6809-1.4225-3.3981-3.8962-3.8161-5.4971-0.41799-1.6009-1.4927-3.052-2.3882-3.2245-1.2855-0.24769-1.6282 0.4364-1.6282 3.2504 0 5.5815 8.0126 12.711 10.238 9.1097zm-44.197-17.428c0-0.55846-1.3576-1.7592-3.0168-2.6682-10.818-5.9269-23.502-15.352-30.555-22.705-13.765-14.35-19.963-28.642-20.112-46.38-0.09994-11.856 1.4289-18.036 7.201-29.108 5.5805-10.705 12.05-18.785 29.841-37.275 19.869-20.649 24.444-26.099 27.898-33.232 2.4528-5.0655 2.7798-6.9122 3.1208-17.623 0.42336-13.298-0.38605-22.48-1.9817-22.48-0.72574 0-0.86394 3.4507-0.44859 11.201 1.3293 24.805-3.2769 32.502-31.862 53.238-19.686 14.281-28.721 22.037-35.543 30.512-9.6658 12.008-13.943 22.402-15.015 36.489-2.5835 33.951 18.931 63.39 56.889 77.843 8.375 3.1888 13.584 4.0282 13.584 2.1891zm65.67-2.7548c13.049-5.434 22.974-12.008 32.326-21.411 14.261-14.339 20.201-27.744 21.088-47.588 0.77837-17.402-3.0007-28.915-13.77-41.952-7.3797-8.9332-15.322-15.322-36.74-29.555-28.82-19.151-35.585-26.776-35.585-40.109 0-3.5459 0.63891-8.57 1.4198-11.165 1.3312-4.4232 1.2964-7.4734-0.0454-3.9768-1.2699 3.3093-4.1642 1.7857-5.7264-3.0145l-1.5-4.6087 0.56796 4.3662c2.0154 15.493 2.2667 21.985 1.376 35.546-1.2042 18.335-3.457 30.868-9.6455 53.658-6.1412 22.617-7.2467 30.815-6.4842 48.087 0.64466 14.602 2.6856 25.524 7.4337 39.781 4.4071 13.233 5.2281 14.237 13.334 16.31 4.4602 1.1406 8.6808 3.0667 12.043 5.496 3.153 2.278 6.3143 3.7608 8.0873 3.7932 1.6009 0.0292 6.9204-1.6166 11.821-3.6573zm-2.927-6.5792c-1.2117-1.2117-0.64801-2.2421 4.0878-7.4715 14.913-16.467 21.596-33.472 21.787-55.434 0.12985-14.96-3.1747-24.873-13.261-39.781-4.5615-6.7418-20.612-23.554-28.376-29.723-5.6984-4.5276-11.548-12.242-12.593-16.607-1.0582-4.4195 1.905-3.2525 5.3423 2.1039 1.6842 2.6247 5.3318 6.4785 8.1058 8.5639 2.7739 2.0855 10.979 8.2041 18.233 13.597 24.959 18.555 36.066 34.374 38.565 54.925 1.4459 11.892-0.85153 24.18-6.6538 35.59-6.0131 11.824-16.977 24.702-26.37 30.974-5.777 3.8577-7.5996 4.5282-8.8661 3.2617zm-48.855 1.2525c0.28174-0.7342-2.2164-5.4278-5.5514-10.43-8.831-13.246-12.674-20.557-16.258-30.926-3.0229-8.7469-3.1868-9.9357-3.2102-23.286-0.0355-20.185 2.15-26.584 18.16-53.173 15.098-25.074 17.141-34.781 15.441-73.357-0.60944-13.826-1.301-25.331-1.5369-25.566-1.5951-1.5951-1.9308 2.5024-1.3444 16.408 1.1676 27.685-0.61841 43.11-6.4562 55.76-3.9753 8.6136-8.4188 15.144-20.387 29.96-16.658 20.623-21.36 31.56-21.273 49.483 0.05982 12.285 1.7249 19.841 6.6886 30.351 5.3749 11.381 15.265 22.866 27.66 32.119 5.7071 4.2609 7.2557 4.771 8.0667 2.6576z" fill="#212178"/>
</svg>
