<svg xmlns="http://www.w3.org/2000/svg" viewBox="0 0 283 283"><ellipse cx="137.3" cy="139.1" rx="126.51" ry="131.91" fill="#fff"/><path d="M118.7 277.4c-29.765-5.266-55.292-18.855-76.387-40.662-17.94-18.547-30.287-41.903-35.908-67.932-2.427-11.24-2.427-43.404 0-54.644 3.798-17.59 11.176-35.066 21.234-50.3C34.298 53.777 53.795 34.28 63.88 27.62c15.233-10.058 32.7-17.435 50.3-21.234 11.24-2.427 43.404-2.427 54.644 0 27.406 5.92 50.178 18.293 69.83 37.945s32.026 42.424 37.945 69.83c2.427 11.24 2.427 43.404 0 54.644-5.918 27.406-18.292 50.178-37.945 69.83-19.342 19.342-41.823 31.687-68.774 37.765-9.558 2.156-41.157 2.773-51.18 1zm24.742-27.328c0-8.975-.13-9.622-1.94-9.622-1.796 0-1.934.62-1.858 8.342.1 9.12.73 11.924 2.587 11.306.86-.287 1.212-3.193 1.212-10.026zm-14.457 3.09c2.554-2.554 3.3-4.103 3.3-6.863 0-2.814-.343-3.498-1.628-3.25-.895.173-1.97 1.624-2.388 3.225s-2.135 4.075-3.816 5.497c-3.027 2.562-3.145 4.69-.26 4.69.822 0 2.98-1.484 4.794-3.3zm31.972 2.247c.358-.58-.725-2.216-2.406-3.638s-3.398-3.896-3.816-5.497-1.493-3.052-2.388-3.225c-1.286-.248-1.628.436-1.628 3.25 0 5.582 8.013 12.71 10.238 9.1zM116.76 237.98c0-.558-1.358-1.76-3.017-2.668-10.818-5.927-23.502-15.352-30.555-22.705-13.765-14.35-19.963-28.642-20.112-46.38-.1-11.856 1.43-18.036 7.2-29.108 5.58-10.705 12.05-18.785 29.84-37.275 19.87-20.65 24.444-26.1 27.898-33.232 2.453-5.065 2.78-6.912 3.12-17.623.423-13.298-.386-22.48-1.982-22.48-.726 0-.864 3.45-.45 11.2 1.33 24.805-3.277 32.502-31.862 53.238-19.686 14.28-28.72 22.037-35.543 30.512-9.666 12.008-13.943 22.402-15.015 36.49-2.584 33.95 18.93 63.4 56.89 77.843 8.375 3.19 13.584 4.028 13.584 2.19zm65.67-2.755c13.05-5.434 22.974-12.008 32.326-21.41 14.26-14.34 20.2-27.744 21.088-47.588.778-17.402-3-28.915-13.77-41.952-7.38-8.933-15.322-15.322-36.74-29.555-28.82-19.15-35.585-26.776-35.585-40.11 0-3.546.64-8.57 1.42-11.165 1.33-4.423 1.296-7.473-.045-3.977-1.27 3.31-4.164 1.786-5.726-3.014l-1.5-4.61.568 4.366c2.015 15.493 2.267 21.985 1.376 35.546-1.204 18.335-3.457 30.868-9.645 53.658-6.14 22.617-7.247 30.815-6.484 48.087.645 14.602 2.686 25.524 7.434 39.78 4.407 13.233 5.228 14.237 13.334 16.3 4.46 1.14 8.68 3.067 12.043 5.496 3.153 2.278 6.314 3.76 8.087 3.793 1.6.03 6.92-1.617 11.82-3.657zm-2.927-6.58c-1.212-1.212-.648-2.242 4.088-7.47 14.913-16.467 21.596-33.472 21.787-55.434.13-14.96-3.175-24.873-13.26-39.78-4.562-6.742-20.612-23.554-28.376-29.723-5.698-4.528-11.548-12.242-12.593-16.607-1.058-4.42 1.905-3.252 5.342 2.104 1.684 2.625 5.332 6.478 8.106 8.564l18.233 13.597c24.96 18.555 36.066 34.374 38.565 54.925 1.446 11.892-.852 24.18-6.654 35.6-6.013 11.824-16.977 24.702-26.37 30.974-5.777 3.858-7.6 4.528-8.866 3.262zm-48.855 1.252c.282-.734-2.216-5.428-5.55-10.43-8.83-13.246-12.674-20.557-16.258-30.926-3.023-8.747-3.187-9.936-3.2-23.286-.035-20.185 2.15-26.584 18.16-53.173 15.098-25.074 17.14-34.78 15.44-73.357-.61-13.826-1.3-25.33-1.537-25.566-1.595-1.595-1.93 2.502-1.344 16.408 1.168 27.685-.618 43.1-6.456 55.76-3.975 8.614-8.42 15.144-20.387 29.96-16.658 20.623-21.36 31.56-21.273 49.483.06 12.285 1.725 19.84 6.69 30.35 5.375 11.38 15.265 22.866 27.66 32.12 5.707 4.26 7.256 4.77 8.067 2.658z" fill="#212178"/></svg>