<?xml version="1.0" encoding="UTF-8"?>
<!DOCTYPE svg  PUBLIC '-//W3C//DTD SVG 1.1//EN'  'http://www.w3.org/Graphics/SVG/1.1/DTD/svg11.dtd'>
<svg width="185" height="223.67" version="1.1" viewBox="0, 0, 185, 223.666" xmlns="http://www.w3.org/2000/svg">
<rect width="185" height="223.67" fill-opacity="0"/>
<defs>
<clipPath id="a">
<path d="m10.651 154.75h163.7v-85.838h-163.7v85.838z"/>
</clipPath>
</defs>
<g clip-path="url(#a)">
<path d="m92.5 151.4c43.356 0 78.504-17.813 78.504-39.785 0-21.971-35.148-39.784-78.504-39.784s-78.504 17.813-78.504 39.784c0 21.972 35.148 39.785 78.504 39.785" fill="#617CBE"/>
<path d="m108.4 124.47l3.895-20.041c0.878-4.523 0.148-7.898-2.172-10.03-2.247-2.063-6.061-3.066-11.66-3.066h-6.744l1.93-9.93c0.073-0.374-0.025-0.761-0.268-1.055-0.242-0.294-0.604-0.465-0.985-0.465h-9.308c-0.611 0-1.136 0.433-1.253 1.033l-4.135 21.277c-0.376-2.394-1.302-4.452-2.785-6.15-2.731-3.125-7.049-4.71-12.837-4.71h-18.04c-0.611 0-1.137 0.433-1.253 1.033l-8.371 43.067c-0.072 0.375 0.026 0.761 0.268 1.055 0.243 0.294 0.604 0.465 0.985 0.465h9.382c0.611 0 1.136-0.433 1.253-1.033l2.025-10.417h6.983c3.665 0 6.743-0.397 9.147-1.18 2.458-0.799 4.72-2.154 6.714-4.021 1.61-1.48 2.942-3.137 3.966-4.925l-1.672 8.606c-0.073 0.375 0.025 0.761 0.268 1.055s0.604 0.465 0.985 0.465h9.308c0.611 0 1.136-0.433 1.253-1.033l4.594-23.64h6.386c2.722 0 3.519 0.542 3.735 0.775 0.197 0.213 0.606 0.962 0.148 3.323l-3.703 19.055c-0.073 0.375 0.025 0.761 0.268 1.055 0.242 0.294 0.604 0.465 0.985 0.465h9.455c0.611 0 1.137-0.433 1.253-1.033zm-43.152-16.559c-0.584 3.004-1.686 5.148-3.274 6.37-1.614 1.243-4.195 1.873-7.673 1.873h-4.158l3.007-15.472h5.376c3.949 0 5.54 0.845 6.179 1.553 0.886 0.981 1.074 2.945 0.543 5.676" fill="#fff"/>
<path d="m148.21 96.043c-2.73-3.125-7.049-4.71-12.836-4.71h-18.041c-0.611 0-1.136 0.433-1.253 1.033l-8.37 43.067c-0.073 0.375 0.025 0.761 0.268 1.055 0.242 0.294 0.603 0.465 0.985 0.465h9.381c0.611 0 1.137-0.433 1.253-1.033l2.025-10.417h6.983c3.666 0 6.743-0.397 9.148-1.18 2.458-0.799 4.719-2.154 6.713-4.021 1.663-1.528 3.032-3.244 4.069-5.099 1.035-1.853 1.779-3.921 2.212-6.147 1.067-5.486 0.213-9.865-2.537-13.013zm-9.73 11.868c-0.585 3.004-1.686 5.148-3.274 6.37-1.614 1.243-4.196 1.873-7.673 1.873h-4.158l3.007-15.472h5.375c3.95 0 5.541 0.845 6.18 1.553 0.885 0.981 1.073 2.945 0.543 5.676" fill="#fff"/>
<path d="m58.528 99.406c3.564 0 5.939 0.658 7.127 1.974 1.187 1.316 1.469 3.574 0.849 6.775-0.649 3.333-1.898 5.713-3.75 7.138-1.851 1.425-4.669 2.137-8.451 2.137h-5.706l3.503-18.024h6.428zm-22.859 36.271h9.382l2.225-11.45h8.036c3.546 0 6.463-0.372 8.753-1.118 2.29-0.744 4.371-1.993 6.244-3.747 1.572-1.444 2.844-3.038 3.818-4.781 0.973-1.742 1.665-3.665 2.073-5.768 0.993-5.105 0.244-9.082-2.245-11.93-2.488-2.849-6.447-4.273-11.875-4.273h-18.04l-8.371 43.067" fill="#08090D"/>
<path d="m83.09 81.16h9.308l-2.225 11.45h8.292c5.217 0 8.816 0.91 10.797 2.729 1.98 1.821 2.574 4.77 1.782 8.847l-3.895 20.041h-9.455l3.702-19.056c0.422-2.167 0.267-3.646-0.465-4.434-0.731-0.789-2.288-1.183-4.67-1.183h-7.439l-4.794 24.673h-9.308l8.37-43.067" fill="#08090D"/>
<path d="m131.75 99.406c3.564 0 5.94 0.658 7.128 1.974 1.186 1.316 1.469 3.574 0.848 6.775-0.649 3.333-1.897 5.713-3.749 7.138-1.851 1.425-4.669 2.137-8.451 2.137h-5.707l3.503-18.024h6.428zm-22.858 36.271h9.382l2.225-11.45h8.036c3.545 0 6.462-0.372 8.752-1.118 2.29-0.744 4.371-1.993 6.245-3.747 1.572-1.444 2.844-3.038 3.818-4.781 0.973-1.742 1.664-3.665 2.073-5.768 0.993-5.105 0.243-9.082-2.245-11.93-2.489-2.849-6.448-4.273-11.875-4.273h-18.041l-8.37 43.067" fill="#08090D"/>
</g>
</svg>
