<svg xmlns="http://www.w3.org/2000/svg" width="185" height="224" viewBox="0 0 185 223.666"><path fill-opacity="0" d="M0 0h185v223.67H0z"/><defs><clipPath id="A"><path d="M10.65 154.75h163.7V68.912H10.65v85.838z"/></clipPath></defs><g clip-path="url(#A)"><path d="M92.5 151.4c43.356 0 78.504-17.813 78.504-39.785S135.856 71.83 92.5 71.83s-78.504 17.813-78.504 39.784S49.144 151.4 92.5 151.4" fill="#617cbe"/><path d="M108.4 124.47l3.895-20.04c.878-4.523.148-7.898-2.172-10.03-2.247-2.063-6.06-3.066-11.66-3.066H91.72l1.93-9.93c.073-.374-.025-.76-.268-1.055s-.604-.465-.985-.465H83.09a1.28 1.28 0 0 0-1.253 1.033L77.7 102.193c-.376-2.394-1.302-4.452-2.785-6.15-2.73-3.125-7.05-4.7-12.837-4.7h-18.04c-.6 0-1.137.433-1.253 1.033l-8.37 43.067a1.28 1.28 0 0 0 1.253 1.52h9.382a1.28 1.28 0 0 0 1.253-1.033l2.025-10.417H55.3c3.665 0 6.743-.397 9.147-1.18 2.458-.8 4.72-2.154 6.714-4.02 1.6-1.48 2.942-3.137 3.966-4.925l-1.672 8.606a1.27 1.27 0 0 0 .268 1.055 1.28 1.28 0 0 0 .985.465h9.308a1.28 1.28 0 0 0 1.253-1.033l4.594-23.64h6.386c2.722 0 3.52.542 3.735.775.197.213.606.962.148 3.323l-3.703 19.055a1.27 1.27 0 0 0 .268 1.055c.242.294.604.465.985.465h9.455c.6 0 1.137-.433 1.253-1.033zM65.248 107.9c-.584 3.004-1.686 5.148-3.274 6.37-1.614 1.243-4.195 1.873-7.673 1.873h-4.158l3.007-15.472h5.376c3.95 0 5.54.845 6.18 1.553.886.98 1.074 2.945.543 5.676m82.95-11.867c-2.73-3.125-7.05-4.7-12.836-4.7h-18.04a1.28 1.28 0 0 0-1.253 1.033l-8.37 43.067a1.27 1.27 0 0 0 .268 1.055c.242.294.603.465.985.465h9.38c.6 0 1.137-.433 1.253-1.033l2.025-10.417h6.983c3.666 0 6.743-.397 9.148-1.18 2.458-.8 4.72-2.154 6.713-4.02 1.663-1.528 3.032-3.244 4.07-5.1s1.78-3.92 2.212-6.147c1.067-5.486.213-9.865-2.537-13.013zm-9.73 11.868c-.585 3.004-1.686 5.148-3.274 6.37-1.614 1.243-4.196 1.873-7.673 1.873h-4.158l3.007-15.472h5.375c3.95 0 5.54.845 6.18 1.553.885.98 1.073 2.945.543 5.676" fill="#fff"/><path d="M58.528 99.406c3.564 0 5.94.658 7.127 1.974s1.47 3.574.85 6.775c-.65 3.333-1.898 5.713-3.75 7.138s-4.67 2.137-8.45 2.137H48.6l3.5-18.024h6.428zm-22.86 36.27h9.382l2.225-11.45h8.036c3.546 0 6.463-.372 8.753-1.118s4.37-1.993 6.244-3.747c1.572-1.444 2.844-3.038 3.818-4.78s1.665-3.665 2.073-5.768c.993-5.105.244-9.082-2.245-11.93S67.508 92.6 62.08 92.6H44.04l-8.37 43.067M83.1 81.16h9.308L90.173 92.6h8.292c5.217 0 8.816.9 10.797 2.73s2.574 4.77 1.782 8.847l-3.895 20.04h-9.455l3.702-19.056c.422-2.167.267-3.646-.465-4.434s-2.288-1.183-4.67-1.183h-7.44l-4.794 24.673H74.72L83.1 81.16m48.65 18.246c3.564 0 5.94.658 7.128 1.974s1.47 3.574.848 6.775c-.65 3.333-1.897 5.713-3.75 7.138s-4.67 2.137-8.45 2.137h-5.707l3.503-18.024h6.428zm-22.858 36.27h9.382l2.225-11.45h8.036c3.545 0 6.462-.372 8.752-1.118s4.37-1.993 6.245-3.747c1.572-1.444 2.844-3.038 3.818-4.78s1.664-3.665 2.073-5.768c.993-5.105.243-9.082-2.245-11.93S140.73 92.6 135.303 92.6h-18.04l-8.37 43.067" fill="#08090d"/></g></svg>