<svg xmlns="http://www.w3.org/2000/svg" viewBox="0 0 350 250"><style><![CDATA[.A{fill:#404040;fill-opacity:1;fill-rule:nonzero;stroke:none}]]></style><path class="A" d="M91.9 105.17a3.68 3.68 0 1 1 4.17 3.11 3.68 3.68 0 0 1-4.17-3.11m-9.54-.37a3.39 3.39 0 1 1 3.84 2.87 3.38 3.38 0 0 1-3.84-2.87m-8.63 4.12a3.1 3.1 0 1 1 3.51 2.62 3.09 3.09 0 0 1-3.51-2.62m31.2 10.43a4.16 4.16 0 1 1 4.7 3.51 4.16 4.16 0 0 1-4.7-3.51m-4.93-9.1a3.95 3.95 0 1 1 4.47 3.34 3.95 3.95 0 0 1-4.47-3.34m-31.53 6.1a2.76 2.76 0 1 1 3.13 2.34 2.76 2.76 0 0 1-3.13-2.34M67 125.2a2.56 2.56 0 1 1 2.9 2.17 2.56 2.56 0 0 1-2.9-2.17m2.85 8.36a2.17 2.17 0 1 1 2.46 1.82 2.16 2.16 0 0 1-2.46-1.82m5.83 6.98a1.87 1.87 0 1 1 2.13 1.58 1.87 1.87 0 0 1-2.13-1.58m7.62 3.28a1.77 1.77 0 1 1 2 1.5 1.78 1.78 0 0 1-2-1.5m45.16-6.92H133l-.54 2.94c-.6 3.32 3.15 4.45 6.5 4.45 4.57 0 7.82-2.84 7.82-6.9 0-7.93-15.2-4.93-15.2-16.23 0-7.34 6.3-11.2 13.23-11.2 4.1 0 10.48 1.77 9.55 6.64l-.8 4.07H149l.44-2.62c.5-2.57-2.85-3.37-5.3-3.37-4.18 0-7.53 2.35-7.53 6.15 0 7.56 15.2 4.5 15.2 16.24 0 7.5-6.25 12-13.53 12-4.48 0-11.6-2-10.53-8.4m44.75-20c3.6 0 9.54 1.56 8.76 6.38l-.6 3.1h-4.23l.35-1.83c.34-2.2-2.42-3.16-4.78-3.16-5.4 0-10.48 5.36-10.48 11.63 0 4.7 2.8 7.77 7.43 7.77a13.24 13.24 0 0 0 8.51-3.54l1.38 4a14.94 14.94 0 0 1-10.33 4c-7.28 0-11.85-4.83-11.85-11.9 0-8.8 7-16.5 15.84-16.5m16.9 5.88c.1-.64-.05-1.17-.9-1.17h-3.1l.8-4h5.6c1.92 0 2.65.75 2.65 2.3a26.18 26.18 0 0 1-.88 4.6h.1c1.68-3.86 5-7.23 9-7.23a8.85 8.85 0 0 1 1.48.11l-.94 5.14a5.73 5.73 0 0 0-1.33-.16c-4.57 0-8.7 6.05-9.8 12.27l-1.77 10.07h-4.82m23.78-9.9l2.3-13.18h-4.13l.74-4h8.9l-2.86 16.12a15.81 15.81 0 0 0-.39 3.11c0 2.35.94 3.8 3.74 3.8 5 0 9-5.57 9.9-10.7l1.47-8.3h-4.13l.74-4h8.9L231 140.5a10.21 10.21 0 0 0-.15 1.66c0 1.93 1 2.36 2.2 2.36a5.39 5.39 0 0 0 1.18-.11l-.73 4s-1.1.1-2.27.1c-3.35 0-5.3-1.87-5-5.94h-.1c-1.62 2.78-5.07 6.48-10.28 6.48-3.8 0-7-2-7-7.13a17.85 17.85 0 0 1 .34-3.43m35.27-12.03c.1-.7-.1-1.13-.9-1.13h-3.1l.73-4h5.6c2 0 2.7.8 2.7 2.26a17.23 17.23 0 0 1-.74 3.69h.1c1.18-2.4 5.2-6.6 9.9-6.6 4 0 6 2.3 6.24 6.6h.1c1.92-3.7 5.66-6.6 9.8-6.6s6.84 2.57 6.84 7.18c0 3.22-2.17 12.16-2.17 14.3s1 2.36 2.2 2.36a6.23 6.23 0 0 0 1.18-.11l-.73 4a21 21 0 0 1-2.12.11c-2.2 0-5.46-.48-5.46-5.1 0-2.52 2.1-11.57 2.1-14.14 0-2.35-.78-3.9-3.64-3.9-4.62 0-8.17 5.47-9.05 10.67l-2.22 12.37h-4.77l2.9-16.24a24.88 24.88 0 0 0 .34-3.05c0-2.2-.78-3.75-3.54-3.75-4.77 0-8.36 5.58-9.35 10.93l-2.16 12.1h-4.78"/></svg>