<svg xmlns="http://www.w3.org/2000/svg" xmlns:xlink="http://www.w3.org/1999/xlink" viewBox="0 0 280 330"><style>.C{color-interpolation-filters:sRGB}.A{fill-opacity:1}.B{stroke:none}.H{fill:#020204}.G{stroke-width:1}.I{fill:#7c7c7c}</style><defs><radialGradient id="A" cx="223.2" cy="137.66" r="14.572" gradientTransform="matrix(1.086 -.034 .039 1.248 -154.54 -26.543)" xlink:href="#Ab"><stop stop-color="#fefefc" offset="0"/><stop stop-color="#fefefc" offset=".757"/><stop stop-color="#d4d4d4" offset="1"/></radialGradient><radialGradient id="B" cx="223.2" cy="137.66" r="14.572" gradientTransform="matrix(.815 -.034 .03 1.248 -129.44 -26.543)" xlink:href="#Ab"><stop stop-color="#fefefc" offset="0"/><stop stop-color="#fefefc" offset=".757"/><stop stop-color="#d4d4d4" offset="1"/></radialGradient><linearGradient id="C" xlink:href="#Ab"><stop stop-color="#3e2a06" offset="0"/><stop stop-color="#ad780a" offset="1"/></linearGradient><linearGradient id="D" x1="447.11" x2="489.18" y1="364.09" y2="300.83" xlink:href="#C"/><linearGradient id="E" x1="442.04" x2="490.12" y1="371.54" y2="293.58" xlink:href="#C"/><clipPath id="F"><path fill="#402c07" d="M137.58 281.02c1.6-.66 3.4-.78 5.1-.47s3.3 1.05 4.74 2.02c2.86 1.95 5 4.78 7.02 7.58 4.67 6.44 9.17 13 13.25 19.83 3.3 5.54 6.33 11.26 10.15 16.45 2.5 3.4 5.3 6.54 7.8 9.93s4.74 7.05 5.85 11.1c1.45 5.3.9 11.1-1.62 15.97-1.77 3.42-4.48 6.35-7.77 8.34s-7.16 3-11 2.87c-6.12-.23-11.7-3.3-17.4-5.55-11.57-4.63-24.15-6.07-36.1-9.67-3.66-1.1-7.27-2.4-10.96-3.42-1.64-.44-3.3-.84-4.86-1.54s-3-1.75-3.86-3.22c-.67-1.13-.95-2.47-.93-3.78s.3-2.62.76-3.86c.9-2.47 2.34-4.7 3.32-7.15 1.6-4 1.88-8.4 1.67-12.68s-.9-8.55-1.2-12.83c-.14-1.92-.2-3.86.18-5.74s1.17-3.72 2.56-5.05c1.26-1.23 2.95-1.96 4.68-2.32s3.52-.38 5.3-.34 3.53.12 5.3-.02 3.52-.54 5.06-1.42c1.46-.83 2.65-2.07 3.64-3.43s1.8-2.85 2.6-4.32 1.68-2.92 2.76-4.2 2.4-2.43 3.94-3.08" class="A B"/></clipPath><filter id="G" width="1.215" height="1.217" x="-.108" y="-.108" class="C"><feGaussianBlur stdDeviation="3.924"/></filter><filter id="H" class="C"><feGaussianBlur stdDeviation="2.437"/></filter><filter id="I" class="C"><feGaussianBlur stdDeviation=".37"/></filter><clipPath id="J"><path fill="none" stroke="#729fcf" stroke-width=".125" d="M248.06 184.6l-7.9 10.26-8.58 10.75c-3.54 4.38-7.16 8.8-9.45 13.94-1.98 4.4-2.9 9.2-4.27 13.85-1.54 5.26-3.62 10.36-5.97 15.32-2.17 4.6-4.56 9.07-6.95 13.54-1.74 3.25-3.5 6.58-4.1 10.22-.48 2.88-.2 5.84.53 8.67s1.9 5.5 3.24 8.1c5.66 11.08 14.17 20.62 24.24 27.93 4.57 3.3 9.46 6.18 14.6 8.52 2.78 1.27 5.7 2.4 8.77 2.46 1.53.03 3.08-.22 4.48-.84s2.66-1.6 3.5-2.9c1-1.56 1.36-3.52 1.15-5.4s-.93-3.65-1.9-5.25c-2.4-3.93-6.17-6.76-9.8-9.58-7.85-6.08-15.43-12.5-22.7-19.25-2.04-1.9-4.1-3.87-5.52-6.28-1.4-2.34-2.15-5-2.66-7.7-1.4-7.34-1.04-15.08 1.46-22.13.98-2.75 2.27-5.4 3.52-8.04 2.16-4.6 4.2-9.26 7.05-13.46 3.54-5.24 8.25-9.68 11.15-15.28 2.46-4.73 3.5-10.06 4.36-15.32.68-4.03 1.26-8.07 1.76-12.13" stroke-linecap="butt" stroke-linejoin="miter" stroke-opacity="1"/></clipPath><filter id="K" width="1.202" height="1.085" x="-.101" y="-.043" class="C"><feGaussianBlur stdDeviation="1.132"/></filter><clipPath id="L"><path fill="none" stroke="#ce5c00" d="M386.2 285.33c-.42-1.1-1.13-2.08-2-2.87s-1.9-1.4-3-1.85c-2.15-.9-4.5-1.25-6.82-1.7l-6.53-1.27c-2.27-.38-4.6-.63-6.86-.12-1.98.45-3.8 1.47-5.28 2.83s-2.65 3.05-3.5 4.9c-1.46 3.23-1.92 6.86-1.64 10.4.2 2.63.87 5.35 2.6 7.34 1.4 1.6 3.4 2.62 5.44 3.22 3.53 1.03 7.37.98 10.86-.16a28.6 28.6 0 0 0 14.33-10.78c1.15-1.65 2.12-3.45 2.57-5.4.33-1.5.34-3.1-.18-4.52" class="F G H G"/></clipPath><filter id="M" width="1.141" height="1.301" x="-.07" y="-.151" class="C"><feGaussianBlur stdDeviation="1.025"/></filter><clipPath id="N"><path fill="none" stroke="#ce5c00" d="M386.2 285.33c-.42-1.1-1.13-2.08-2-2.87s-1.9-1.4-3-1.85c-2.15-.9-4.5-1.25-6.82-1.7l-6.53-1.27c-2.27-.38-4.6-.63-6.86-.12-1.98.45-3.8 1.47-5.28 2.83s-2.65 3.05-3.5 4.9c-1.46 3.23-1.92 6.86-1.64 10.4.2 2.63.87 5.35 2.6 7.34 1.4 1.6 3.4 2.62 5.44 3.22 3.53 1.03 7.37.98 10.86-.16a28.6 28.6 0 0 0 14.33-10.78c1.15-1.65 2.12-3.45 2.57-5.4.33-1.5.34-3.1-.18-4.52" class="F G H G"/></clipPath><filter id="O" width="1.401" height="1.468" x="-.201" y="-.234" class="C"><feGaussianBlur stdDeviation="2.844"/></filter><filter id="P" width="1.183" height="1.213" x="-.091" y="-.107" class="C"><feGaussianBlur stdDeviation="1.297"/></filter><filter id="Q" width="1.939" height="1.547" x="-.469" y="-.274" class="C"><feGaussianBlur stdDeviation=".86"/></filter><filter id="R" width="2.208" height="1.965" x="-.604" y="-.482" class="C"><feGaussianBlur stdDeviation="2.64"/></filter><filter id="S" class="C"><feGaussianBlur stdDeviation="2.209"/></filter><clipPath id="T"><path fill="url(#E)" d="M516 331.88a16.75 16.75 0 0 1-2.8 4.73c-2.63 3.13-6.28 5.18-9.9 7.03-6.2 3.16-12.6 5.93-18.43 9.72-3.9 2.54-7.5 5.53-10.86 8.74-2.86 2.74-5.6 5.68-8.82 8-3.25 2.36-7.02 4.06-11 4.66-4.82.73-9.8-.2-14.3-2.16-3.13-1.37-6.14-3.33-7.95-6.23-1.82-2.92-2.23-6.5-2.23-9.93 0-6.07 1.1-12.1 2.17-18.07.88-4.97 1.72-9.96 2.26-14.97 1-9.13.98-18.36.32-27.52-.1-1.53-.23-3.08 0-4.6s.85-3.04 2.02-4.04c1.07-.93 2.52-1.34 3.94-1.42s2.84.15 4.25.36c3.3.48 6.65.86 9.9 1.7 2.03.55 4.02 1.27 6.06 1.82 3.4.92 6.97 1.36 10.47.95 3.77-.44 7.43-1.85 11.23-1.76 1.56.03 3.1.32 4.58.8 1.52.47 3 1.15 4.13 2.3.85.85 1.44 1.93 1.9 3.06.65 1.67 1 3.45 1.15 5.25.14 1.6.12 3.2.42 4.76.5 2.58 1.85 4.93 3.53 6.94s3.7 3.72 5.7 5.4c2 1.7 4 3.36 6.16 4.84 1 .7 2.06 1.34 3.02 2.1s1.84 1.64 2.44 2.7c.82 1.46 1.07 3.22.68 4.84" class="A B"/></clipPath><clipPath id="U"><path fill="url(#E)" d="M516 331.88a16.75 16.75 0 0 1-2.8 4.73c-2.63 3.13-6.28 5.18-9.9 7.03-6.2 3.16-12.6 5.93-18.43 9.72-3.9 2.54-7.5 5.53-10.86 8.74-2.86 2.74-5.6 5.68-8.82 8-3.25 2.36-7.02 4.06-11 4.66-4.82.73-9.8-.2-14.3-2.16-3.13-1.37-6.14-3.33-7.95-6.23-1.82-2.92-2.23-6.5-2.23-9.93 0-6.07 1.1-12.1 2.17-18.07.88-4.97 1.72-9.96 2.26-14.97 1-9.13.98-18.36.32-27.52-.1-1.53-.23-3.08 0-4.6s.85-3.04 2.02-4.04c1.07-.93 2.52-1.34 3.94-1.42s2.84.15 4.25.36c3.3.48 6.65.86 9.9 1.7 2.03.55 4.02 1.27 6.06 1.82 3.4.92 6.97 1.36 10.47.95 3.77-.44 7.43-1.85 11.23-1.76 1.56.03 3.1.32 4.58.8 1.52.47 3 1.15 4.13 2.3.85.85 1.44 1.93 1.9 3.06.65 1.67 1 3.45 1.15 5.25.14 1.6.12 3.2.42 4.76.5 2.58 1.85 4.93 3.53 6.94s3.7 3.72 5.7 5.4c2 1.7 4 3.36 6.16 4.84 1 .7 2.06 1.34 3.02 2.1s1.84 1.64 2.44 2.7c.82 1.46 1.07 3.22.68 4.84" class="A B"/></clipPath><filter id="V" width="1.29" height="1.286" x="-.145" y="-.143" class="C"><feGaussianBlur stdDeviation="4.779"/></filter><clipPath id="W"><path fill="url(#D)" d="M511.83 331.9c-.6 1.4-1.44 2.7-2.47 3.85-2.32 2.58-5.5 4.22-8.66 5.7-5.42 2.53-11 4.77-16.1 7.88-3.4 2.05-6.55 4.47-9.52 7.1-2.52 2.22-4.93 4.62-7.72 6.5-2.9 1.93-6.18 3.3-9.62 3.77-4.22.58-8.55-.18-12.5-1.75-2.7-1.08-5.37-2.62-6.97-5.06-1.53-2.35-1.93-5.26-1.95-8.06-.03-4.94.97-9.82 1.9-14.67.8-4.03 1.53-8.07 1.98-12.15.82-7.4.66-14.9.28-22.33-.06-1.26-.13-2.5.08-3.75s.74-2.45 1.7-3.27c.93-.8 2.2-1.16 3.44-1.2s2.47.15 3.7.34c2.9.43 5.8.7 8.65 1.4 1.8.42 3.53 1 5.32 1.46 2.98.75 6.1 1.1 9.15.77 3.3-.36 6.5-1.5 9.82-1.43 1.36.03 2.7.27 4.02.65 1.3.38 2.6.92 3.6 1.86.73.7 1.25 1.57 1.65 2.5.58 1.35.9 2.8 1.03 4.26.12 1.28.1 2.6.36 3.85.43 2.15 1.63 4.08 3.1 5.7s3.23 2.98 4.96 4.32c1.76 1.36 3.5 2.74 5.4 3.92.88.54 1.8 1.05 2.63 1.66s1.6 1.34 2.14 2.24a5.42 5.42 0 0 1 .6 3.9" class="A B"/></clipPath><filter id="X" width="1.231" height="1.25" x="-.115" y="-.125" class="C"><feGaussianBlur stdDeviation="3.173"/></filter><filter id="Y" width="1.042" height="1.259" x="-.021" y="-.129" class="C"><feGaussianBlur stdDeviation=".479"/></filter><filter id="Z" width="1.355" height="1.319" x="-.178" y="-.159" class="C"><feGaussianBlur stdDeviation=".901"/></filter><filter id="a" width="2.633" height="1.116" x="-.817" y="-.058" class="C"><feGaussianBlur stdDeviation="1.446"/></filter><linearGradient id="b" xlink:href="#Ab"><stop offset="0"/><stop stop-opacity=".25" offset="1"/></linearGradient><filter id="c" class="C"><feGaussianBlur stdDeviation=".785"/></filter><filter id="d" class="C"><feGaussianBlur stdDeviation="1.138"/></filter><filter id="e" class="C"><feGaussianBlur stdDeviation=".643"/></filter><clipPath id="f"><path fill="none" stroke="#c17d11" d="M304.85 225.45c6 4.92 9.77 12.32 10.94 20 1.8 12.03-2.36 24.08-6.46 35.54-.8 2.27-1.64 4.6-1.96 6.98s-.12 4.95 1.03 7.1c1.3 2.4 3.74 4.1 6.38 4.9 2.6.8 5.4.77 8 .1s5.07-1.97 7.2-3.64c5.48-4.3 8.76-10.98 10-17.84s.64-13.93-.55-20.8c-1.63-9.37-4.3-18.54-7.74-27.4-2.53-6.52-5.48-12.92-9.63-18.53-4.05-5.47-9.16-10.1-13.1-15.63-2.74-3.85-4.9-8.13-8.2-11.5-1.64-1.7-3.57-3.15-5.77-4s-4.66-1.14-6.93-.5c-1.5.43-2.9 1.24-4.04 2.3s-2.05 2.38-2.7 3.8c-1.27 2.86-1.47 6.12-.95 9.2.66 4 2.44 7.7 4.46 11.2 2.28 3.93 4.92 7.72 8.4 10.65 3.6 3.04 7.95 5.07 11.6 8.05" class="F G H G"/></clipPath><filter id="g" width="1.235" height="1.08" x="-.118" y="-.04" class="C"><feGaussianBlur stdDeviation="1.352"/></filter><clipPath id="h"><path fill="url(#B)" d="M54.23 122.36c-1.78.1-3.48.92-4.8 2.14s-2.2 2.8-2.77 4.5c-1.13 3.4-.88 7.05-.62 10.6.23 3.22.47 6.5 1.68 9.5.6 1.5 1.45 2.9 2.58 4.07s2.55 2.04 4.1 2.43c1.48.37 3.05.3 4.5-.16s2.76-1.28 3.84-2.34c1.58-1.54 2.65-3.56 3.26-5.7s.78-4.34.75-6.55c-.04-2.76-.4-5.54-1.27-8.16s-2.25-5.1-4.17-7.1c-.93-.96-2-1.8-3.2-2.4s-2.54-.92-3.87-.85" class="A B"/></clipPath><filter id="i" width="1.31" height="1.43" x="-.155" y="-.215" class="C"><feGaussianBlur stdDeviation=".899"/></filter><filter id="j" class="C"><feGaussianBlur stdDeviation=".758"/></filter><filter id="k" width="1.322" height="1.261" x="-.161" y="-.13" class="C"><feGaussianBlur stdDeviation=".849"/></filter><linearGradient id="l" xlink:href="#Ab"><stop stop-color="#3a2903" offset="0"/><stop stop-color="#735208" offset=".555"/><stop stop-color="#ac8c04" offset="1"/></linearGradient><filter id="m" class="C"><feGaussianBlur stdDeviation=".11"/></filter><filter id="n" width="1.233" height="1.211" x="-.116" y="-.106" class="C"><feGaussianBlur stdDeviation=".11"/></filter><filter id="o" width="1.215" height="1.272" x="-.107" y="-.136" class="C"><feGaussianBlur stdDeviation=".264"/></filter><filter id="p" width="1.469" height="1.292" x="-.234" y="-.146" class="C"><feGaussianBlur stdDeviation=".513"/></filter><linearGradient id="q" xlink:href="#Ab"><stop stop-color="#646464" stop-opacity="0" offset="0"/><stop stop-color="#646464" stop-opacity=".583" offset=".306"/><stop stop-color="#646464" offset=".47"/><stop stop-color="#646464" stop-opacity=".257" offset=".728"/><stop stop-color="#646464" stop-opacity="0" offset="1"/></linearGradient><filter id="r" class="C"><feGaussianBlur stdDeviation=".135"/></filter><filter id="s" class="C"><feGaussianBlur stdDeviation=".148"/></filter><clipPath id="t"><path fill="url(#A)" d="M85.75 122.36c-2.78 1.9-5.1 4.58-6.25 7.75-1.44 4-.9 8.5.5 12.5 1.42 4.13 3.8 8.05 7.38 10.52 1.8 1.24 3.87 2.1 6.03 2.34s4.42-.1 6.35-1.1c2.35-1.22 4.15-3.37 5.26-5.78s1.6-5.07 1.75-7.72c.2-3.37-.14-6.8-1.25-10-1.2-3.47-3.4-6.67-6.47-8.66-1.54-1-3.3-1.7-5.1-1.94s-3.72-.06-5.43.6c-.97.38-1.9.9-2.75 1.5" class="A B"/></clipPath><filter id="u" width="1.316" height="1.418" x="-.158" y="-.209" class="C"><feGaussianBlur stdDeviation=".249"/></filter><filter id="v" width="1.357" height="1.363" x="-.179" y="-.181" class="C"><feGaussianBlur stdDeviation=".519"/></filter><filter id="w" width="1.584" height="1.617" x="-.292" y="-.308" class="C"><feGaussianBlur stdDeviation="1.74"/></filter><filter id="x" width="1.108" height="1.215" x="-.054" y="-.107" class="C"><feGaussianBlur stdDeviation="1.361"/></filter><filter id="y" class="C"><feGaussianBlur stdDeviation=".932"/></filter><filter id="z" width="1.153" height="1.258" x="-.076" y="-.129" class="C"><feGaussianBlur stdDeviation="2.036"/></filter><radialGradient id="AA" cx="223.2" cy="137.66" r="14.572" gradientTransform="matrix(.815 -.034 .03 1.248 -208.44 -35.543)" xlink:href="#Ab"><stop stop-color="#fefefc" offset="0"/><stop stop-color="#fefefc" offset=".757"/><stop stop-color="#d4d4d4" offset="1"/></radialGradient><radialGradient id="AB" cx="223.2" cy="137.66" r="14.572" gradientTransform="matrix(1.086 -.034 .039 1.248 -233.54 -35.543)" xlink:href="#Ab"><stop stop-color="#fefefc" offset="0"/><stop stop-color="#fefefc" offset=".757"/><stop stop-color="#d4d4d4" offset="1"/></radialGradient><radialGradient id="AC" cx="275.54" cy="150.65" r="15.382" gradientTransform="matrix(.698 -.507 .46 .633 -271.1 183.03)" xlink:href="#Ab"><stop stop-color="#020204" offset="0"/><stop stop-color="#020204" offset=".734"/><stop stop-color="#5c5c5c" offset="1"/></radialGradient><linearGradient id="AD" x1="303.02" x2="309.73" y1="132.77" y2="140.72" xlink:href="#Ab"><stop stop-color="#949494" stop-opacity=".392" offset="0"/><stop stop-color="#949494" offset=".5"/><stop stop-color="#949494" stop-opacity=".392" offset="1"/></linearGradient><linearGradient id="AE" x1="87.25" x2="108.62" y1="119.99" y2="132.49" xlink:href="#Ab"><stop stop-color="#747474" offset="0"/><stop stop-color="#8c8c8c" offset=".125"/><stop stop-color="#a4a4a4" offset=".25"/><stop stop-color="#d4d4d4" offset=".5"/><stop stop-color="#d4d4d4" offset=".619"/><stop stop-color="#7c7c7c" offset="1"/></linearGradient><linearGradient id="AF" x1="15.51" x2="29.741" y1="105.56" y2="119" xlink:href="#q"/><linearGradient id="AG" x1="-25.773" x2="-12.373" y1="106.67" y2="119.57" xlink:href="#q"/><linearGradient id="AH" x1="164.05" x2="169.88" y1="132.06" y2="142.49" xlink:href="#Ab"><stop stop-color="#757574" stop-opacity="0" offset="0"/><stop stop-color="#757574" offset=".263"/><stop stop-color="#757574" offset=".5"/><stop stop-color="#757574" stop-opacity="0" offset="1"/></linearGradient><radialGradient id="AI" cx="294.48" cy="193.1" r="31.111" gradientTransform="matrix(.936 -.386 .271 .657 -244.48 146.72)" xlink:href="#Ab"><stop stop-color="#d2940a" offset="0"/><stop stop-color="#d89c08" offset=".751"/><stop stop-color="#b67e07" offset=".866"/><stop stop-color="#946106" offset="1"/></radialGradient><linearGradient id="AJ" x1="46.857" x2="103.34" y1="158.31" y2="157.87" xlink:href="#Ab"><stop stop-color="#ad780a" offset="0"/><stop stop-color="#d89e08" offset=".12"/><stop stop-color="#edb80b" offset=".255"/><stop stop-color="#ebc80d" offset=".392"/><stop stop-color="#f5d838" offset=".527"/><stop stop-color="#f6d811" offset=".769"/><stop stop-color="#f5cd31" offset="1"/></linearGradient><radialGradient id="AK" cx="77.672" cy="147.09" r="3.23" gradientTransform="matrix(1 0 0 .583 0 61.416)" xlink:href="#l"/><radialGradient id="AL" cx="63.125" cy="147.44" r="1.535" gradientTransform="matrix(1 0 0 1.075 0 -11.094)" xlink:href="#l"/><linearGradient id="AM" x1="243.03" x2="243.47" y1="157.02" y2="159.77" xlink:href="#Ab"><stop stop-color="#f5ce2d" offset="0"/><stop stop-color="#d79b08" offset="1"/></linearGradient><radialGradient id="AN" cx="268.07" cy="126.54" r="35.511" gradientTransform="matrix(.201 -.033 .031 .186 -3.126 114.04)" xlink:href="#Ab"><stop stop-color="#c8c8c8" offset="0"/><stop stop-color="#797978" offset="1"/></radialGradient><radialGradient id="AO" cx="336.22" cy="220.54" r="27.391" gradientTransform="matrix(-.698 0 0 .763 166.31 50.22)" xlink:href="#Ab"><stop offset="0"/><stop stop-opacity=".25" offset="1"/></radialGradient><radialGradient id="AP" cx="312.14" cy="236.37" r="27.391" gradientTransform="matrix(1 0 0 .763 -289 41.22)" xlink:href="#b"/><radialGradient id="AQ" cx="275.55" cy="225.14" r="10.845" gradientTransform="matrix(1 0 0 1.069 -289 -23.86)" xlink:href="#b"/><linearGradient id="AR" x1="28.286" x2="31.982" y1="323.9" y2="351.49" xlink:href="#Ab"><stop offset="0"/><stop stop-opacity="0" offset="1"/></linearGradient><linearGradient id="AS" x1="442.04" x2="490.12" y1="371.54" y2="293.58" xlink:href="#Ab"><stop stop-color="#3e2a06" offset="0"/><stop stop-color="#ad780a" offset="1"/></linearGradient><linearGradient id="AT" x1="45.164" x2="43.75" y1="289.59" y2="302.32" xlink:href="#Ab"><stop stop-color="#f3cd0c" offset="0"/><stop stop-color="#f3cd0c" stop-opacity="0" offset="1"/></linearGradient><radialGradient id="AU" cx="363.34" cy="303.42" r="16.846" gradientTransform="matrix(1.308 .351 -.368 1.373 -310.51 -240.35)" xlink:href="#Ab"><stop stop-color="#110800" offset="0"/><stop stop-color="#a65a00" stop-opacity=".8" offset=".591"/><stop stop-color="#ff921e" stop-opacity="0" offset="1"/></radialGradient><radialGradient id="AV" cx="382.24" cy="246.86" r="20.538" gradientTransform="matrix(.36 .157 -.072 .166 260.62 181.94)" xlink:href="#Ab"><stop stop-color="#7c7c7c" offset="0"/><stop stop-color="#7c7c7c" stop-opacity=".33" offset="1"/></radialGradient><linearGradient id="AW" x1="358.5" x2="361.5" y1="279.36" y2="279.24" xlink:href="#Ab"><stop stop-color="#7c7c7c" offset="0"/><stop stop-color="#7c7c7c" stop-opacity=".33" offset="1"/></linearGradient><linearGradient id="AX" x1="123.13" x2="170.86" y1="301.54" y2="381.62" xlink:href="#Ab"><stop stop-color="#b98309" offset="0"/><stop stop-color="#382605" offset="1"/></linearGradient><linearGradient id="AY" x1="171.04" x2="186.07" y1="322.22" y2="350.51" xlink:href="#Ab"><stop stop-color="#ebc40c" offset="0"/><stop stop-color="#ebc40c" stop-opacity="0" offset="1"/></linearGradient><path id="AZ" d="M71.48 295.64c-.56-1.1-1.58-1.93-2.73-2.4s-2.4-.63-3.63-.62c-2.48.02-4.94.66-7.4.45-2.08-.18-4.06-.97-6.1-1.46-2.1-.5-4.32-.7-6.4-.13-2.23.6-4.2 2.1-5.43 4.04-1.1 1.73-1.6 3.77-1.77 5.8s.02 4.06.22 6.08c.15 1.47.32 2.93.67 4.36s.9 2.82 1.77 4.02c1.23 1.7 3.07 2.94 5.06 3.67a14.1 14.1 0 0 0 10.13-.18c5.65-2.45 10.44-6.86 13.36-12.3 1.04-1.94 1.86-4.02 2.38-6.16.2-.86.37-1.73.38-2.6s-.15-1.78-.55-2.56"/><path id="Aa" d="M362.22 276.46a13.48 13.48 0 0 0-1.63.18c-3.47.62-6.65 2.8-8.44 5.85a12.38 12.38 0 0 0-1.66 7.14c.08-1.74.53-3.44 1.38-4.97 1.43-2.58 4.03-4.53 6.94-5.06 1.8-.32 3.63-.12 5.43.1 1.74.22 3.48.45 5.2.82 2.63.57 5.24 1.45 7.46 3 .53.36 1 .77 1.42 1.25s.72 1.04.84 1.65c.18.9-.08 1.86-.53 2.66s-1.06 1.5-1.72 2.16c-.52.52-1.08 1.03-1.64 1.53 2.56-.5 5.15-1.2 7.28-2.7.9-.62 1.7-1.38 2.24-2.33s.77-2.12.5-3.2c-.17-.7-.57-1.37-1.06-1.93s-1.08-1-1.68-1.43c-2.68-1.87-5.82-3.08-9.07-3.47-2.08-.38-4.18-.7-6.28-.97-1.65-.2-3.33-.37-4.98-.28z"/><linearGradient id="Ab" gradientUnits="userSpaceOnUse"/></defs><path d="M200.52 123.37c3.26 7.1 6.9 14 10.12 21.1 6.22 13.68 10.94 28.1 12.9 43s1.1 30.26-3.54 44.53c-5.26 16.1-15.24 30.45-27.47 42.18-14.47 13.88-33.04 24.58-53.07 25.37-13.06.52-26.05-3.22-37.6-9.3-9.73-5.1-18.6-11.93-25.67-20.32s-12.34-18.4-14.78-29.1c-3-13.18-1.64-27.17 2.9-39.9 3.24-9.12 8.05-17.6 11.47-26.64 3.73-9.9 5.82-20.44 10.77-29.77 4.5-8.46 11.23-15.68 14.8-24.57 2.14-5.3 3.07-11 4.45-16.56s3.3-11.14 7.07-15.45c4.52-5.2 11.33-8.02 18.18-8.8s13.78.27 20.5 1.8c5.35 1.22 10.63 2.74 15.8 4.58 4.42 1.57 8.8 3.4 12.6 6.1 5.2 3.7 9.17 8.92 12.32 14.47s5.57 11.47 8.23 17.27M143.04 299.68c5.5.32 11 .85 16.44 1.67a165.46 165.46 0 0 1 14.26 2.82c7.37 1.8 14.72 4.07 22.3 4.28 2 .06 4-.03 5.97-.46s3.85-1.24 5.42-2.48c2.33-1.86 3.8-4.66 4.35-7.6s.2-5.97-.65-8.82c-1.7-5.7-5.4-10.58-8.43-15.7-1.76-2.93-3.3-5.98-5.2-8.82s-4.15-5.5-7.02-7.35c-3.97-2.56-8.9-3.4-13.6-2.92s-9.2 2.17-13.38 4.34c-5.88 3.05-11.4 7.22-14.6 13-1.13 2.03-1.94 4.2-2.88 6.3s-2.06 4.16-3.66 5.8c-1.8 1.85-4.1 3.1-5.97 4.87-.93.9-1.74 1.94-2.2 3.13s-.6 2.56-.16 3.77c.3.83.84 1.56 1.5 2.13s1.47 1 2.3 1.28c1.66.6 3.45.68 5.2.78M126.7 299.32c-4.6.1-9.13.93-13.6 1.86-4.3.88-8.58 1.87-12.82 2.98-7.15 1.88-14.3 4.13-21.7 4.3-1.96.03-3.92-.08-5.8-.52s-3.75-1.22-5.27-2.43c-2.3-1.84-3.8-4.64-4.34-7.56s-.2-5.97.64-8.82c1.7-5.7 5.33-10.58 8.3-15.72 1.7-2.93 3.2-5.97 5.03-8.8s4.04-5.52 6.86-7.37c3.84-2.53 8.64-3.4 13.22-2.94s8.98 2.13 13.02 4.34c5.7 3.12 10.92 7.4 14.22 13 2.3 3.93 3.65 8.42 6.35 12.1 1.47 1.98 3.3 3.68 4.5 5.82.62 1.07 1.06 2.25 1.16 3.47s-.15 2.5-.84 3.52c-.45.67-1.08 1.2-1.8 1.6s-1.47.68-2.27.84c-1.6.33-3.23.27-4.85.3m-25.63-190.86c-.64-7.75-.5-15.55-.78-23.32-.3-7.47-.97-14.94-.72-22.4.25-7.6 1.53-15.3 4.9-22.14s8.9-12.6 15.6-16.23c6.3-3.4 13.56-4.85 20.73-4.77 9.73.1 19.47 3.04 27.34 8.74 4.94 3.58 9.1 8.18 12.36 13.32 2.8 4.38 4.97 9.17 6.33 14.2 2.8 10.3 2.13 21.15 2.67 31.8.52 10.1 2.13 20.15 1.58 30.24-.12 2.2-.35 4.44-1.33 6.4-.95 1.92-2.57 3.46-4.42 4.52s-3.95 1.67-6.07 2c-4.22.64-8.55.2-12.8.6-6.18.58-12.08 2.87-18.2 3.82-7.3 1.13-14.77.33-22.16.04-2.96-.12-5.93-.16-8.87-.53s-5.87-1.08-8.48-2.47c-1.6-.86-3.1-1.98-4.3-3.35s-2.12-3-2.57-4.77c-.7-2.65-.33-5.44-.32-8.18 0-2.5-.28-5-.5-7.5" class="H"/><path fill="#fdfdfb" d="M112.7 105.45c-1.04 1.3-1.72 2.9-2.14 4.52s-.56 3.3-.62 4.98c-.13 3.35.07 6.77-.8 10-.96 3.47-3.1 6.46-5.17 9.38-3.6 5.06-7.25 10.25-9.03 16.2-1.07 3.6-1.43 7.43-1.05 11.17-4.04 5.93-7.54 12.22-10.43 18.78-4.38 9.94-7.4 20.53-8.45 31.34-1.3 13.24.4 26.86 5.62 39.1 3.78 8.84 9.42 16.94 16.7 23.25 3.68 3.2 7.8 5.94 12.2 8.1 15.2 7.47 34 7.48 48.96-.5 7.82-4.15 14.42-10.25 20.78-16.4 3.83-3.72 7.65-7.52 10.57-12 5.63-8.58 7.6-19.02 8.8-29.22 2.13-17.83 2.2-36.67-5.62-52.84a58.3 58.3 0 0 0-10.58-15.13c-1.14-7.78-3.4-15.4-6.7-22.54-2.36-5.16-5.26-10.06-7.46-15.3-.9-2.14-1.7-4.34-2.7-6.44s-2.24-4.13-3.93-5.74c-1.72-1.65-3.87-2.82-6.13-3.57s-4.65-1.1-7.03-1.22c-4.76-.24-9.53.4-14.3.2-3.8-.15-7.58-.82-11.37-.6-1.9.12-3.8.46-5.55 1.17s-3.38 1.82-4.56 3.3"/><path fill-opacity=".26" d="M-28.63 172.6c1.7 4.94 5.13 9.15 9.18 12.44 1.35 1.1 2.8 2.1 4.37 2.82s3.33 1.12 5.06.97c1.7-.14 3.3-.8 4.8-1.64s2.85-1.86 4.28-2.77c2.47-1.56 5.1-2.82 7.66-4.22 3.08-1.68 6.07-3.6 8.67-5.95 1.17-1.08 2.28-2.27 3.6-3.2s2.88-1.6 4.48-1.5c1.2.08 2.34.6 3.5.85.6.13 1.2.2 1.8.1s1.2-.34 1.6-.78c.52-.53.75-1.3.7-2.04s-.27-1.45-.62-2.1c-.7-1.32-1.74-2.44-2.2-3.85-.4-1.25-.33-2.6-.3-3.9s0-2.7-.6-3.87c-.46-.9-1.23-1.6-2.12-2.06s-1.88-.7-2.87-.8c-2-.2-4 .2-6 .3-2.65.16-5.32-.17-7.97 0-3.3.2-6.56 1.15-9.88 1.15-3.78 0-7.57-1.23-11.3-.64-1.6.27-3.14.85-4.68 1.36s-3.13.97-4.76.95c-1.84-.02-3.63-.66-5.47-.8-.9-.05-1.85 0-2.7.33s-1.66.93-2.08 1.75c-.25.47-.37 1-.4 1.52s.06 1.06.2 1.57c.24 1.03.7 2 1.1 2.97 1.38 3.55 1.68 7.45 2.93 11.06" filter="url(#z)" transform="translate(139 -49.362)"/><path d="M-54.38 165.47c3.3 2.22 6.28 4.95 8.77 8.06 2.3 2.88 4.27 6.15 7.3 8.3 2.12 1.5 4.68 2.34 7.28 2.6 3.06.3 6.14-.2 9.1-1.05 2.7-.8 5.35-1.93 7.77-3.42 4.6-2.84 8.44-7 13.5-8.86 1.1-.4 2.26-.7 3.32-1.2s2.07-1.25 2.58-2.3c.5-1.04.47-2.22.63-3.34.17-1.2.56-2.36.77-3.56s.23-2.47-.28-3.57c-.43-.9-1.2-1.62-2.1-2.08s-1.9-.67-2.9-.72c-2-.1-4 .42-6 .6-2.64.25-5.3-.1-7.97-.02-3.3.1-6.57.86-9.87 1.02-3.78.18-7.54-.42-11.3-.55-1.64-.06-3.3-.03-4.9.25s-3.18.82-4.55 1.73c-1.32.87-2.4 2.06-3.6 3.1-.6.5-1.25.97-1.96 1.33s-1.48.6-2.27.64c-.4.02-.82 0-1.22.05a2.6 2.6 0 0 0-2.12 3" transform="matrix(1 0 0 .921 160 -43.255)" filter="url(#y)" opacity=".3"/><g transform="translate(139 -49.362)"><path fill="url(#AA)" d="M-24.77 113.36c-1.78.1-3.48.92-4.8 2.14s-2.2 2.8-2.77 4.5c-1.13 3.4-.88 7.05-.62 10.6.23 3.23.47 6.5 1.68 9.5.6 1.5 1.45 2.9 2.58 4.07s2.55 2.04 4.1 2.43c1.48.37 3.05.3 4.5-.16s2.76-1.28 3.84-2.34c1.58-1.54 2.65-3.56 3.26-5.7s.78-4.34.75-6.55c-.04-2.76-.4-5.54-1.27-8.16s-2.24-5.1-4.17-7.1c-.92-.96-2-1.8-3.2-2.4s-2.53-.92-3.87-.85"/><path fill="url(#AB)" d="M6.75 113.36c-2.78 1.9-5.1 4.58-6.25 7.75-1.44 4-.9 8.5.5 12.5 1.42 4.13 3.8 8.05 7.38 10.52 1.8 1.24 3.87 2.1 6.03 2.34s4.42-.1 6.35-1.1c2.35-1.22 4.15-3.37 5.26-5.78s1.6-5.07 1.75-7.72c.2-3.37-.14-6.8-1.25-10-1.2-3.47-3.4-6.67-6.47-8.66-1.54-1-3.3-1.7-5.1-1.94s-3.72-.06-5.43.6c-.97.38-1.9.9-2.75 1.5"/><path d="M-25.36 142.15l-5.14 4.7c-.9.9-1.8 1.87-2.2 3.1-.37 1.07-.3 2.24-.48 3.37-.06.38-.15.77-.15 1.16a1.94 1.94 0 0 0 .07.58c.06.18.16.36.3.5.2.24.53.37.85.43s.63.06.95.1c1.46.16 2.8.86 4 1.7l3.56 2.58c2.74 1.73 6 2.5 9.23 2.63s6.46-.36 9.63-1c2.52-.5 5.04-1.1 7.43-2.04 3.65-1.45 6.95-3.67 10.1-6.02 1.44-1.07 2.85-2.18 4.14-3.42.44-.42.86-.86 1.33-1.24s1-.73 1.56-.9c.88-.3 1.84-.2 2.75-.06.7.1 1.38.27 2.07.24.35-.02.7-.08 1.02-.2s.63-.34.85-.6a2.02 2.02 0 0 0 .44-1.28c0-.46-.14-.9-.37-1.3-.48-.8-1.28-1.33-2.12-1.7-1.14-.5-2.38-.76-3.6-1.05-3.75-.9-7.4-2.24-10.84-3.96-1.7-.85-3.38-1.8-5.07-2.7-1.74-.93-3.5-1.82-5.4-2.4-4.2-1.27-8.8-.85-12.97.6-4.62 1.6-8.8 4.46-11.96 8.18" filter="url(#x)" opacity=".3"/><path fill="url(#AC)" d="M-16.4 136.86c1.77-2 2.98-4.4 4.67-6.46.85-1.02 1.83-1.95 3-2.6s2.48-1.05 3.8-.94c1.48.13 2.86.86 3.94 1.88s1.9 2.3 2.53 3.62c.6 1.28 1.1 2.64 1.98 3.75.95 1.2 2.27 2 3.46 2.94.6.46 1.16.97 1.64 1.56s.84 1.27 1 2a4.2 4.2 0 0 1-.2 2.28c-.26.72-.7 1.37-1.26 1.9-1.1 1.07-2.6 1.64-4.13 1.86-3.03.43-6.1-.48-9.18-.4-3.1.1-6.14 1.2-9.25 1.08-1.55-.06-3.12-.44-4.4-1.33a5.57 5.57 0 0 1-1.6-1.68c-.4-.67-.64-1.43-.67-2.2-.02-.75.15-1.5.45-2.17s.7-1.3 1.18-1.87c.94-1.15 2.08-2.1 3.07-3.22"/></g><path d="M277.96 90.86c-2.23 1.57-1.25 3.53-.3 5.5s-2.1 7.64-2.13 7.88 6.02-2.88 7.67-4.9c1.95-2.4 6.88 3.23 6.6 2.38 0-1.54-9.6-12.43-11.84-10.86z" class="I" transform="matrix(1.152 0 0 1.152 -163.03 -72.199)" filter="url(#w)"/><path d="M152.16 72.4c-1.04.07-2.06.43-2.95 1s-1.63 1.3-2.22 2.18c-1.2 1.72-1.7 3.84-1.8 5.94-.06 1.57.1 3.16.63 4.65s1.4 2.86 2.63 3.86c1.24 1.03 2.8 1.64 4.42 1.72s3.24-.4 4.56-1.3c1.07-.74 1.9-1.75 2.52-2.88s.97-2.38 1.13-3.66c.3-2.23-.03-4.58-1.07-6.6s-2.8-3.67-4.93-4.45c-.92-.34-1.9-.52-2.9-.45" class="H"/><g transform="translate(-150 -58.362)"><path fill="#141413" d="M304.66 137.6c-.87.35-2.24.14-2.62 1-.23.5.1 1.32.6 1.53 1.04.42 2.64-.34 3.05-1.38.17-.45-.1-1.16-.55-1.35-.16-.07-.33.14-.5.2z" filter="url(#u)"/><path fill="url(#AD)" d="M308.63 139.86c1.16-1.16-.83-4.24-2.38-5.5-1.12-.9-4.4-1.87-4.25-.87s1.6 2.25 2.6 3.22c1.2 1.2 3.48 3.7 4.03 3.14z" filter="url(#v)"/></g><path fill="url(#AE)" d="M75.25 132.5a23.7 23.7 0 0 1 8.12-4.4c6.1-1.9 13-1.15 18.38 2.26 1.86 1.18 3.5 2.64 5.24 4s3.55 2.65 5.63 3.38c1.12.4 2.3.62 3.5.5 1.06-.12 2.1-.52 2.98-1.12s1.63-1.42 2.2-2.34c1.1-1.84 1.46-4.07 1.27-6.2-.38-4.28-2.8-8.06-4.82-11.84-.63-1.2-1.24-2.4-2-3.5-2.34-3.4-6.07-5.64-9.98-6.95s-8.05-1.8-12.14-2.3c-1.83-.24-3.68-.48-5.5-.26-2.1.25-4.08 1.1-6.13 1.62-.97.25-1.96.43-2.93.7s-1.9.67-2.7 1.3c-1.14.92-1.86 2.3-2.17 3.72s-.24 2.93 0 4.38c.44 2.9 1.53 5.72 1.42 8.65-.07 2.02-.7 4-.62 6 .02.6.1 1.2.25 1.76" transform="translate(60 -58.362)" clip-path="url(#t)"/><g transform="translate(139 -49.362)"><path fill="url(#AF)" d="M16.4 105.13c-.47.6-.9 1.25-1.24 1.97 2.14.46 4.2 1.34 6.03 2.56 3.53 2.35 6.22 5.8 8.1 9.62.45-.48.85-1 1.2-1.6-1.9-3.98-4.65-7.6-8.3-10.02-1.78-1.17-3.74-2.05-5.8-2.53z" filter="url(#s)"/><path fill="url(#AG)" d="M-24.97 107.08l-.72.03-.46.04c1.4.12 2.82.5 4.1 1.08 1.73.78 3.27 1.9 4.62 3.16 2.5 2.34 4.36 5.24 5.62 8.3a20.8 20.8 0 0 0-2.06-6.65c-.5-.57-1-1.13-1.56-1.65-1.35-1.27-2.9-2.38-4.62-3.16a12.55 12.55 0 0 0-4.9-1.14z" filter="url(#r)"/></g><path d="M109.94 78.75c-.37 2.25-.4 4.6.4 6.74.5 1.4 1.34 2.7 2.36 3.8.67.72 1.43 1.37 2.3 1.8s1.93.6 2.88.36c.88-.22 1.66-.8 2.22-1.5s.95-1.55 1.22-2.4c.8-2.57.67-5.38-.12-7.94-.58-1.86-1.53-3.67-3.03-4.92-.7-.6-1.54-1.07-2.45-1.3s-1.9-.16-2.74.23c-.94.43-1.67 1.24-2.15 2.16s-.72 1.93-.9 2.95" class="H"/><path fill="url(#AH)" d="M-24.3 126.5c.23.62 1.04.85 1.5 1.36.42.5.87 1 1.1 1.63.47 1.16-.44 2.9.5 3.74.3.26.9.26 1.2 0 1.15-1.05.9-3.15.44-4.63-.4-1.33-1.43-2.6-2.68-3.24-.58-.3-1.45-.54-1.95-.12-.3.27-.26.86-.1 1.25z" filter="url(#p)" transform="translate(139 -49.362)"/><g transform="translate(60 -58.362)"><path fill="url(#AI)" d="M45.75 165.03c.06.3.18.58.33.84.27.45.65.8 1.07 1.1l1.3.85c2.35 1.46 4.25 3.53 5.94 5.7 2.26 2.93 4.26 6.17 7.3 8.3 2.13 1.5 4.68 2.35 7.28 2.6 3.05.32 6.14-.18 9.08-1.04 2.73-.8 5.37-1.93 7.8-3.42 4.6-2.84 8.43-7 13.5-8.86 1.1-.4 2.25-.7 3.3-1.2s2.08-1.25 2.6-2.32c.5-1.02.46-2.2.62-3.32.17-1.2.56-2.36.77-3.56s.23-2.47-.28-3.57c-.43-.9-1.2-1.63-2.1-2.08s-1.9-.67-2.9-.72c-2-.1-4 .42-6 .6-2.65.24-5.3-.1-7.97-.02-3.3.1-6.57.86-9.88 1.02-3.77.18-7.53-.4-11.3-.55-1.64-.07-3.28-.05-4.9.22s-3.2.82-4.54 1.74c-1.3.9-2.35 2.14-3.56 3.2-.6.5-1.25 1-1.96 1.34s-1.5.56-2.3.54c-.4 0-.84-.07-1.23.05-.24.08-.46.23-.64.4s-.35.4-.5.6a10.52 10.52 0 0 0-.86 1.56"/><path fill="#d9b30d" d="M60.56 169.1a6.7 6.7 0 0 0 4.34 7.84c1.98.66 4.2.34 6.06-.62 1.07-.56 2.05-1.35 2.67-2.4a4.5 4.5 0 0 0 .6-1.68c.08-.6.03-1.22-.18-1.8-.23-.6-.64-1.16-1.15-1.58s-1.1-.74-1.73-.95c-1.26-.4-2.6-.4-3.94-.35a38.86 38.86 0 0 0-5.96.75" filter="url(#i)"/><path fill="#604405" d="M54.07 156.68l-3.9 2.56c-.66.47-1.34.97-1.68 1.7-.26.5-.3 1.1-.3 1.67s.02 1.15-.06 1.7l-.17 1.16c0 .2 0 .4.06.58a1.2 1.2 0 0 0 .27.5c.17.2.4.3.65.38s.5.1.74.17c1.16.27 2.18 1 3.08 1.8l2.64 2.47c2.54 2.07 5.9 2.92 9.16 2.98s6.5-.63 9.7-1.35l7.42-2.05c3.7-1.36 7.14-3.43 10.12-6.02 1.35-1.17 2.62-2.46 4.13-3.42 1.34-.83 2.84-1.38 4.2-2.2.13-.06.25-.13.36-.23s.22-.2.28-.32c.1-.22.1-.48.04-.72s-.2-.44-.36-.63a5.19 5.19 0 0 0-.57-.58c-1.43-1.22-3.37-1.66-5.24-1.8s-3.76-.05-5.6-.36c-1.74-.3-3.4-.94-5.07-1.48a37.34 37.34 0 0 0-5.4-1.3c-4.3-.7-8.7-.57-12.97.3a38.08 38.08 0 0 0-11.54 4.5" filter="url(#j)"/><path fill="url(#AJ)" d="M53.64 152.15c-1.93 1.3-3.67 2.9-5.14 4.7-.84 1.02-1.6 2.14-2.02 3.4-.34 1-.45 2.04-.66 3.07-.08.38-.17.77-.17 1.16 0 .2.03.4.1.58s.14.36.28.5c.23.24.54.36.86.43s.63.06.95.1c1.46.16 2.8.87 4 1.7l3.56 2.58c2.74 1.73 6 2.5 9.24 2.62s6.45-.36 9.63-1c2.52-.5 5.03-1.1 7.42-2.04 3.65-1.45 6.95-3.67 10.1-6.02 1.44-1.07 2.85-2.18 4.14-3.42.44-.42.86-.86 1.33-1.25s1-.72 1.57-.9c.88-.3 1.83-.2 2.74-.05.7.1 1.38.27 2.08.24.34-.02.7-.08 1.02-.2s.62-.34.84-.6a2.02 2.02 0 0 0 .44-1.28c0-.46-.14-.9-.37-1.3-.47-.8-1.28-1.33-2.1-1.7-1.16-.5-2.4-.76-3.62-1.05-3.75-.9-7.4-2.25-10.84-3.96-1.7-.85-3.38-1.8-5.07-2.7-1.73-.93-3.5-1.82-5.4-2.4-4.2-1.27-8.8-.85-12.97.6-4.62 1.6-8.8 4.45-11.96 8.18"/><path fill="#f6da4a" d="M83.24 153.08c-.23-.3-.55-.5-.9-.6s-.73-.1-1.08-.04c-.72.12-1.37.5-1.97.93-1.72 1.17-3.23 2.62-4.55 4.23-1.74 2.12-3.18 4.57-3.67 7.27-.08.46-.13.92-.07 1.38s.24.92.57 1.24c.28.28.67.46 1.07.5s.82.02 1.2-.1c.77-.27 1.4-.8 2.02-1.35 3.33-3 6.35-6.57 7.56-10.88.12-.44.22-.88.22-1.33s-.12-.9-.4-1.26" filter="url(#k)"/><path fill="url(#AK)" d="M75.25 146.9c.23.74 1.43.62 2.12.97.6.32 1.1 1 1.78 1.02.65 0 1.66-.23 1.75-.88.1-.85-1.14-1.4-1.94-1.7-1.03-.4-2.35-.6-3.32-.07-.22.12-.46.4-.4.65z" filter="url(#m)" opacity=".8"/><path fill="url(#AL)" d="M63.83 146.47c-.9-.3-2.36 1.28-1.88 2.08.13.22.53.5.8.35.4-.23.75-1.03 1.2-1.34.3-.2.22-.98-.12-1.1z" filter="url(#n)" opacity=".8"/></g><path fill="url(#AM)" d="M245.9 158.28c0 1.3-1.17 2.33-2.6 2.33s-2.62-1.03-2.62-2.32 1.17-2.33 2.6-2.33 2.62 1.04 2.62 2.33z" transform="matrix(1.096 0 -.17 1.518 -76.24 -140.479)" filter="url(#o)"/><path fill="url(#AN)" d="M50.4 129.53c2.68-1.6 5.95-1.97 9.06-1.68s6.12 1.2 9.14 2.03c2.2.6 4.45 1.16 6.52 2.14s4 2.4 5.15 4.4l.54.96c.2.32.43.6.72.83s.66.38 1.03.36c.18 0 .36-.06.52-.16s.3-.23.38-.4c.1-.18.13-.4.12-.6a2.94 2.94 0 0 0-.12-.63c-.76-2.75-2.54-5.08-3.9-7.6l-2.3-4.6c-2.8-5.15-7.43-9.2-12.7-11.84s-11.12-3.9-17-4.24c-6.8-.4-13.6.4-20.32 1.58-2.9.5-5.86 1.12-8.43 2.56-1.3.73-2.47 1.66-3.4 2.8s-1.57 2.55-1.78 4c-.2 1.42 0 2.87.5 4.2s1.26 2.56 2.16 3.67c1.8 2.22 4.1 3.94 6.22 5.84s4.1 4 6.46 5.56c1.2.8 2.48 1.44 3.85 1.82s2.84.5 4.23.2c1.45-.3 2.78-1 3.95-1.9s2.2-1.98 3.15-3.1c1.93-2.23 3.73-4.68 6.26-6.2" clip-path="url(#h)" transform="translate(60 -58.362)"/><path d="M205.1 167.1c6.1 4.88 9.95 12.27 11.14 20 .93 6 .33 12.2-1.03 18.12s-3.44 11.68-5.52 17.4c-.83 2.3-1.66 4.6-2 7s-.1 4.95 1.05 7.08c1.33 2.45 3.8 4.13 6.48 4.93 2.65.78 5.5.76 8.16.1s5.15-1.96 7.33-3.65c5.5-4.28 8.83-10.95 10.12-17.8s.7-13.96-.5-20.84c-1.63-9.38-4.38-18.55-7.88-27.4-2.57-6.53-5.6-12.93-9.8-18.53-4.1-5.47-9.3-10.08-13.33-15.63-2.8-3.85-5.04-8.15-8.4-11.52-1.68-1.7-3.64-3.13-5.86-4s-4.7-1.1-7-.47c-3.02.85-5.5 3.23-6.8 6.1s-1.55 6.1-1.04 9.2c.66 4 2.5 7.7 4.55 11.2 2.32 3.93 5.02 7.72 8.53 10.65 3.67 3.05 8.1 5.07 11.82 8.06" class="H"/><path fill="#838384" d="M290.78 216.02l1.5 1.37c3.67 3.05 5.62 6.48 9.34 9.47 6.08 4.9 12.26 13.34 13.45 21.06.93 6.02-.3 9.3-1.8 16.4s-5.77 17.14-8.08 23.98c-.93 2.74 1.85 1.6 1.5 4.5a17.72 17.72 0 0 0-.05 4.25l.07-.82c.45-3.93 1.63-7.7 2.9-11.4 2.5-7.12 5.33-14.1 7.3-21.4s1.73-12.57.7-18.85c-1.28-7.9-5.8-15.2-12.18-20-4.52-3.4-9.85-5.58-14.66-8.56z" transform="matrix(1.018 0 0 1 -105.26 -58.362)" clip-path="url(#f)" filter="url(#g)"/><path fill="url(#AO)" d="M-61 211.6c.88 1.52-.55 6.77 19.96 3.4 0 0-3.6.46-7.15 1.4-5.5 2.14-10.32 4.53-14.03 7.7-3.68 3.1-6.37 7.18-9.74 10.68 0 0 5.46-11.52 6.82-14.98s-.23-3.3.85-8.42 3.7-10 3.7-10-2.14 7.2-.4 10.2z" transform="matrix(1.154 0 0 1 166.332 -58.362)" filter="url(#e)" opacity=".25"/><g transform="translate(139 -49.362)"><path fill="url(#AP)" d="M33.05 201.22c-4.83 3.36-7.65 2.96-13.5 3.62s-21.7.42-21.7.42 2.3-.05 7.37.9 15.46 1.85 21.3 4.08 7.96 2.85 11.5 5.1c5.06 3.2 8.77 8.2 13.6 11.7 0 0 .23-4.65-1.72-8.12s-7.2-8.93-8.73-14.04-2.27-15.13-2.27-15.13-1.02 8.1-5.85 11.47z" filter="url(#d)" opacity=".42"/><path fill="url(#AQ)" d="M-12.33 194.04l-.7 4.34c-.14.7-.3 1.42-.56 2.1s-.63 1.3-1.17 1.8c-.47.42-1.04.7-1.62.97a23.97 23.97 0 0 1-7.1 2.02l2.94.27 1.83.3c.6.16 1.2.4 1.7.75.53.4.96.94 1.3 1.54.63 1.2.84 2.56.96 3.9.15 1.72.16 3.46.03 5.18a16.47 16.47 0 0 1 .72-3.4c.66-1.98 1.7-3.84 3.12-5.38.56-.6 1.18-1.17 1.86-1.65a10.3 10.3 0 0 1 7.24-1.77A11.24 11.24 0 0 1-9 202.8c-1.04-.8-1.95-1.77-2.58-2.9a8.1 8.1 0 0 1-.75-5.87" filter="url(#c)" opacity=".2"/><path d="M-18.5 228.08a88.7 88.7 0 0 0-2.53 14.28c-.63 6.8-.48 13.67-.85 20.5-.3 5.8-1 11.66.02 17.38.48 2.72 1.34 5.38 2.55 7.87a26.9 26.9 0 0 0 .42-2.86c.42-4.64-.36-9.3-.62-13.94-.46-8.15.66-16.3 1.12-24.44a149.28 149.28 0 0 0-.12-18.78" filter="url(#a)" opacity=".1"/><path fill="#838384" d="M37.7 157.86c-2.17 1.97 1 4.93 2.5 8.4.94 2.17 3.54 5.2 6.04 4.72 1.9-.36 3.05-3.08 2.88-5-.35-3.68-3.46-4.54-5.72-5.8-1.8-1-4.2-3.7-5.7-2.32z" filter="url(#Z)"/></g><path fill="url(#AR)" d="M86.06 328.13a16.6 16.6 0 0 1-2.05 4.4c-1.97 3.03-4.85 5.3-7.72 7.38-4.9 3.58-10 6.85-14.56 10.9-3.06 2.73-5.84 5.77-8.43 8.98-2.22 2.74-4.3 5.62-6.8 8.05-2.55 2.46-5.54 4.45-8.76 5.53-3.92 1.32-8.06 1.26-11.83.26-2.64-.7-5.22-1.9-6.85-4.1-1.65-2.2-2.18-5.14-2.37-8.04-.34-5.13.26-10.37.8-15.58.45-4.33.87-8.65 1.04-12.97.3-7.85-.2-15.64-1.23-23.27-.18-1.28-.37-2.57-.27-3.9s.54-2.68 1.44-3.7c.83-.94 2-1.5 3.15-1.77s2.33-.3 3.5-.33c2.73-.07 5.5-.24 8.2 0 1.7.17 3.36.5 5.06.65 2.84.28 5.78.14 8.63-.72 3.07-.92 6-2.65 9.1-3.13 1.28-.2 2.57-.17 3.8 0 1.27.2 2.53.55 3.5 1.34.75.62 1.3 1.45 1.7 2.33.65 1.32 1.04 2.77 1.26 4.26.2 1.3.26 2.67.6 3.95.54 2.1 1.77 3.88 3.26 5.34s3.22 2.6 4.96 3.72c1.73 1.13 3.47 2.25 5.3 3.18.88.43 1.77.83 2.6 1.33s1.6 1.12 2.15 1.94c.75 1.1 1.05 2.55.82 3.97" transform="matrix(1.027 0 0 1 157.687 -58.362)" filter="url(#S)" opacity=".2"/><g transform="translate(-250 -58.362)"><path fill="url(#AS)" d="M516 331.88a16.75 16.75 0 0 1-2.8 4.73c-2.63 3.13-6.28 5.18-9.9 7.03-6.2 3.16-12.6 5.93-18.43 9.72-3.9 2.54-7.5 5.53-10.86 8.74-2.86 2.74-5.6 5.68-8.82 8-3.25 2.36-7.02 4.06-11 4.66-4.82.73-9.8-.2-14.3-2.16-3.13-1.37-6.14-3.33-7.95-6.23-1.82-2.92-2.23-6.5-2.23-9.93 0-6.07 1.1-12.1 2.17-18.07.88-4.97 1.72-9.96 2.26-14.97 1-9.13.98-18.36.32-27.52-.1-1.53-.23-3.08 0-4.6s.85-3.04 2.02-4.04c1.07-.93 2.52-1.34 3.94-1.42s2.84.15 4.25.36c3.3.48 6.65.86 9.9 1.7 2.03.55 4.02 1.27 6.06 1.82 3.4.92 6.97 1.36 10.47.95 3.77-.44 7.43-1.85 11.23-1.76 1.56.03 3.1.32 4.58.8 1.52.47 3 1.15 4.13 2.3.85.85 1.44 1.93 1.9 3.06.65 1.67 1 3.45 1.15 5.25.14 1.6.12 3.2.42 4.76.5 2.58 1.85 4.93 3.53 6.94s3.7 3.72 5.7 5.4c2 1.7 4 3.36 6.16 4.84 1 .7 2.06 1.34 3.02 2.1s1.84 1.64 2.44 2.7c.82 1.46 1.07 3.22.68 4.84" clip-path="url(#T)"/><path fill="#cd8907" d="M512.9 328.72a15.3 15.3 0 0 1-2.58 4.26c-2.4 2.82-5.73 4.66-9.04 6.3-5.65 2.84-11.5 5.33-16.82 8.75-3.55 2.28-6.84 4.97-9.92 7.86-2.63 2.46-5.12 5.1-8.06 7.2-2.98 2.12-6.42 3.64-10.04 4.18-4.4.65-8.96-.2-13.06-1.95-2.85-1.22-5.6-2.97-7.27-5.6-1.64-2.62-2.02-5.83-2.03-8.92 0-5.46 1.02-10.86 2-16.24.8-4.47 1.57-8.95 2.05-13.46.9-8.2.85-16.5.3-24.74-.1-1.38-.2-2.77 0-4.14s.8-2.72 1.83-3.63c1-.85 2.3-1.23 3.6-1.3s2.6.15 3.87.34c3.03.44 6.08.78 9.03 1.54 1.87.48 3.7 1.13 5.55 1.63 3.1.84 6.36 1.23 9.56.86 3.44-.4 6.8-1.67 10.25-1.58 1.43.03 2.84.3 4.2.72 1.38.42 2.75 1.03 3.76 2.06.77.77 1.3 1.75 1.72 2.76.63 1.5 1.03 3.1 1.07 4.72.03 1.7-.34 3.4-.1 5.07.18 1.38.75 2.66 1.5 3.82s1.62 2.2 2.5 3.26c1.73 2.03 3.45 4.1 5.6 5.66 2.46 1.77 5.37 2.8 7.9 4.46.76.5 1.5 1.06 2.02 1.78a4.76 4.76 0 0 1 .62 4.34" clip-path="url(#U)" filter="url(#V)"/></g><path fill="#f5c021" d="M508.8 327.93c-.6 1.26-1.4 2.44-2.32 3.5-2.15 2.4-5.06 4.1-8.12 5.16-5.04 1.75-10.55 2-15.5 4-3 1.23-5.73 3.08-8.48 4.82-2.22 1.4-4.5 2.77-6.93 3.76-2.75 1.1-5.68 1.74-8.62 2.18-1.87.28-3.77.48-5.65.4s-3.8-.52-5.45-1.4c-1.27-.7-2.4-1.67-3.08-2.93-.75-1.4-.88-3.06-.86-4.65.03-4.25 1-8.45.98-12.7-.02-3.7-.8-7.34-1.04-11.03-.44-7.1 1.2-14.3-.24-21.27-.23-1.1-.54-2.23-.53-3.37 0-.56.1-1.13.32-1.65s.55-1 1-1.34c.4-.27.86-.44 1.34-.52s.95-.06 1.43 0c.95.15 1.85.5 2.77.75 2.65.73 5.44.7 8.12 1.26 1.7.34 3.32.9 4.98 1.33 2.8.7 5.72 1 8.6.7 3.1-.34 6.1-1.38 9.2-1.3 1.28.03 2.55.25 3.77.6s2.47.8 3.4 1.68c.67.63 1.15 1.44 1.54 2.27.57 1.2.97 2.53.96 3.86 0 .7-.12 1.4-.2 2.08s-.08 1.42.1 2.1.56 1.28.98 1.83.92 1.06 1.36 1.6c1.24 1.52 2.13 3.3 3.1 5s2.05 3.38 3.58 4.6c2.08 1.68 4.78 2.35 7.1 3.67.68.4 1.33.84 1.8 1.46a3.77 3.77 0 0 1 .57 3.56" transform="matrix(1.143 0 0 1.232 -319 -135.488)" clip-path="url(#W)" filter="url(#X)"/><path fill="url(#AT)" d="M27.3 290.65c3.3-.9 6.08 1.6 8.45 3.47 1.54 1.3 3.75.98 5.64 1.04 3.1-.1 6.2.53 9.34.14 6.14-.52 12.16-2.03 18.34-2.3 2.95-.2 6.26-.36 8.8 1.36 1.04.72 2.55 3.74 3.57 2.6-.42-3.17-2.78-6.25-5.94-7.1-2.46-.38-5 .3-7.48.08-7.42-.18-14.8-1.56-22.23-1.16-5.2.04-10.36-.2-15.53-.4-2.03-.4-2.74 1.4-3.85 2.08" filter="url(#Y)" transform="translate(160 -58.362)"/><g class="I"><path d="M361.75 209.34c0-1.53-7.57-10.05-9.8-8.48s-.5 3.78-.3 5.5-.94 6.6.24 7.25 3.36-2.5 5.3-4.26c1.55-1.42 4.54 1.54 4.54 0z" transform="matrix(-.096 -.957 -.775 .119 398.9 493.248)" filter="url(#R)" opacity=".75"/><path d="M351.96 200.86c-1.45.4-1.23 4-.3 5.5.8 1.26 3.08 2.26 3.76 1 1.12-2.06-1.47-7.04-3.46-6.5z" transform="matrix(-.07 .957 -.565 -.119 236.568 -180.382)" filter="url(#Q)" opacity=".25"/></g><g transform="translate(160 -58.362)"><g fill="url(#AU)"><use filter="url(#O)" opacity=".35" xlink:href="#AZ"/><use transform="matrix(1 0 0 .723 0 80.758)" filter="url(#P)" opacity=".35" xlink:href="#AZ"/></g><path d="M76.2 285.33c-.42-1.1-1.13-2.08-2-2.87s-1.9-1.4-2.98-1.85c-2.17-.9-4.52-1.25-6.84-1.7l-6.52-1.27c-2.27-.38-4.62-.63-6.87-.12-1.98.45-3.8 1.47-5.28 2.83s-2.65 3.05-3.5 4.9c-1.46 3.23-1.92 6.86-1.64 10.4.2 2.63.87 5.35 2.6 7.34 1.4 1.6 3.4 2.62 5.44 3.22 3.53 1.03 7.37.98 10.86-.16a28.6 28.6 0 0 0 14.33-10.78c1.15-1.65 2.13-3.45 2.57-5.4.33-1.5.34-3.1-.18-4.52" class="H"/><g transform="translate(-310)"><use fill="url(#AV)" clip-path="url(#L)" filter="url(#M)" xlink:href="#Aa"/><use fill="url(#AW)" clip-path="url(#N)" filter="url(#M)" xlink:href="#Aa"/></g></g><path d="M98.5 126.06l-16.92 21.2c-3.54 4.37-7.15 8.78-9.45 13.92-1.98 4.4-2.9 9.2-4.27 13.85-1.54 5.27-3.63 10.37-5.97 15.33-2.17 4.6-4.56 9.07-6.95 13.54-1.74 3.25-3.5 6.58-4.1 10.22-.48 2.88-.2 5.84.53 8.67s1.9 5.5 3.23 8.1c5.68 11.07 14.18 20.62 24.26 27.92a85.2 85.2 0 0 0 14.6 8.52c2.78 1.27 5.7 2.4 8.77 2.46 1.53.03 3.08-.22 4.48-.84s2.66-1.6 3.5-2.9c1-1.56 1.36-3.52 1.15-5.4s-.93-3.65-1.9-5.25c-2.4-3.9-6.17-6.75-9.8-9.57-7.85-6.07-15.43-12.48-22.7-19.24-2.04-1.9-4.1-3.88-5.52-6.3-1.4-2.33-2.15-5-2.66-7.68-1.4-7.35-1.04-15.08 1.46-22.13.98-2.77 2.27-5.4 3.52-8.05 2.16-4.6 4.2-9.27 7.05-13.47 3.54-5.23 8.27-9.66 11.15-15.28 2.44-4.74 3.42-10.07 4.36-15.32l2.2-12.32" class="H"/><path d="M-56.67 215.27c-2.32 2.14-4.33 4.6-5.95 7.32-2.67 4.45-4.24 9.46-6.18 14.28-1.45 3.6-3.13 7.2-3.33 11.05-.1 2 .2 3.97.26 5.96s-.12 4.04-1.1 5.77c-.8 1.45-2.17 2.6-3.73 3.14a11.07 11.07 0 0 1 5.33 3.88c1.12 1.5 1.83 3.25 2.8 4.85.78 1.3 1.75 2.5 2.94 3.45s2.6 1.62 4.12 1.8a7.26 7.26 0 0 0 5.75-1.83c-1.92-18.04-.16-36.46 5.15-53.8.34-1.1.7-2.2.77-3.34s-.13-2.34-.82-3.25c-.37-.5-.87-.87-1.43-1.1s-1.2-.33-1.8-.26a3.54 3.54 0 0 0-2.8 2.07" class="I" clip-path="url(#J)" filter="url(#K)" opacity=".95" transform="translate(139 -49.362)"/><g transform="translate(-80 -58.362)" clip-path="url(#F)"><path fill="url(#AX)" d="M137.58 281.02c1.6-.66 3.4-.78 5.1-.47s3.3 1.05 4.74 2.02c2.86 1.95 5 4.78 7.02 7.58 4.67 6.44 9.17 13 13.25 19.83 3.3 5.54 6.33 11.26 10.15 16.45 2.5 3.4 5.3 6.54 7.8 9.93s4.74 7.05 5.85 11.1c1.45 5.3.9 11.1-1.62 15.97-1.77 3.42-4.48 6.35-7.77 8.34s-7.16 3-11 2.87c-6.12-.23-11.7-3.3-17.4-5.55-11.57-4.63-24.15-6.07-36.1-9.67-3.66-1.1-7.27-2.4-10.96-3.42-1.64-.44-3.3-.84-4.86-1.54s-3-1.75-3.86-3.22c-.67-1.13-.95-2.47-.93-3.78s.3-2.62.76-3.86c.9-2.47 2.34-4.7 3.32-7.15 1.6-4 1.88-8.4 1.67-12.68s-.9-8.55-1.2-12.83c-.14-1.92-.2-3.86.18-5.74s1.17-3.72 2.56-5.05c1.26-1.23 2.95-1.96 4.68-2.32s3.52-.38 5.3-.34 3.53.12 5.3-.02 3.52-.54 5.06-1.42c1.46-.83 2.65-2.07 3.64-3.43s1.8-2.85 2.6-4.32 1.68-2.92 2.76-4.2 2.4-2.43 3.94-3.08"/><path fill="#d99a03" d="M140.1 283.78c1.46-.6 3.1-.65 4.62-.3s2.95 1.1 4.2 2.04c2.47 1.92 4.2 4.62 5.84 7.27 3.97 6.43 7.85 12.93 11.52 19.56 2.78 5 5.43 10.1 8.84 14.68 2.26 3.04 4.84 5.83 7.16 8.84s4.37 6.28 5.4 9.93c1.3 4.72.77 9.9-1.5 14.24a18.98 18.98 0 0 1-7.2 7.52 18.5 18.5 0 0 1-10.08 2.48c-5.6-.25-10.7-3.05-15.98-4.95-10.1-3.67-21.05-4.16-31.42-7.03-3.7-1-7.33-2.35-11.07-3.3-1.65-.4-3.33-.75-4.9-1.4s-3.04-1.7-3.9-3.17c-.63-1.1-.88-2.4-.84-3.66s.35-2.5.8-3.7c.9-2.36 2.3-4.5 3.22-6.87 1.38-3.57 1.55-7.5 1.3-11.32s-.93-7.6-1.16-11.44c-.1-1.7-.12-3.43.22-5.1s1.08-3.3 2.3-4.52c1.32-1.3 3.14-2.02 4.98-2.3s3.7-.16 5.55 0 3.72.38 5.57.27 3.74-.56 5.27-1.6c1.4-.95 2.45-2.33 3.25-3.8s1.35-3.06 1.96-4.62 1.27-3.13 2.22-4.5 2.24-2.6 3.8-3.24" filter="url(#G)"/><path fill="#f5bd0c" d="M138.75 281.24c1.4-.72 3.07-.86 4.62-.54s2.98 1.1 4.2 2.1c2.43 2 3.97 4.87 5.4 7.68 3.32 6.45 6.4 13.05 10.35 19.13 2.87 4.4 6.18 8.52 9.08 12.9 3.94 5.96 7.14 12.5 8.46 19.52.9 4.72.86 9.8-1.37 14.06-1.48 2.8-3.86 5.1-6.67 6.52s-6.05 2.02-9.2 1.74c-4.95-.45-9.45-2.93-14.1-4.66-8.3-3.07-17.23-3.8-25.75-6.12-3.6-.98-7.1-2.23-10.75-3-1.6-.34-3.24-.6-4.77-1.18s-3-1.57-3.77-3c-.56-1.03-.75-2.2-.67-3.37s.42-2.26.87-3.33c.9-2.13 2.2-4.1 2.9-6.3 1-3.24.6-6.75-.17-10.06s-1.85-6.55-2.2-9.93c-.14-1.5-.14-3.04.2-4.52s1.03-2.9 2.1-3.95c1.4-1.36 3.35-2.04 5.3-2.23s3.9.07 5.8.35 3.88.6 5.83.5 3.93-.6 5.45-1.82c1.52-1.2 2.47-3 3-4.84s.73-3.78.95-5.7.5-3.84 1.23-5.62 1.96-3.43 3.68-4.3" transform="matrix(1 0 0 .982 0 3.959)" filter="url(#H)"/><path fill="url(#AY)" d="M156.4 295.97c2.62 4.7 4.2 10.12 6.8 14.88 2.37 4.37 5.07 8.87 7.5 12.9 1.07 1.8 3.57 4.56 6.1 8.84 2.3 3.87 4.63 9.3 5.93 11.1-.75-2.13-2.28-7.84-4.1-11.92-1.7-3.8-3.7-5.98-4.94-8.03-2.43-4.03-5.03-7.65-7.5-11.5-3.43-5.3-6.05-11.23-9.8-16.28z" filter="url(#I)"/></g></svg>