<?xml version="1.0" encoding="utf-8"?>
<!-- Generator: Adobe Illustrator 22.1.0, SVG Export Plug-In . SVG Version: 6.00 Build 0)  -->
<svg version="1.1" id="Layer_1" xmlns="http://www.w3.org/2000/svg" xmlns:xlink="http://www.w3.org/1999/xlink" x="0px" y="0px"
	 viewBox="0 0 277.8 150.2" style="enable-background:new 0 0 277.8 150.2;" xml:space="preserve">
<style type="text/css">
	.st0{fill:#007AA5;}
</style>
<path class="st0" d="M127,26.6c-8.5,0-13.6,6.2-13.6,19.7s5,19.6,13.5,19.6s13.7-6.2,13.7-19.7S135.5,26.6,127,26.6 M127,58
	c-2.8,0-4.3-2.7-4.3-11.9s1.4-11.7,4.2-11.7c2.9,0,4.3,2.7,4.3,11.9S129.8,58,127,58"/>
<path class="st0" d="M251.2,105.4L245.6,89c3.1-1.8,5-5,5-10c0-8.5-5-11.6-11.8-11.6h-13.2v38.1h8.9V90.9h2.4l4.5,14.6L251.2,105.4
	L251.2,105.4z M241.6,79.2c0,3.2-1,4.7-3.6,4.7h-3.4v-9.3h3.6C240.7,74.6,241.6,76.1,241.6,79.2"/>
<polygon class="st0" points="223.9,105.4 223.9,97.7 210.7,97.7 210.7,89.4 219.3,89.4 219.3,81.7 210.7,81.7 210.7,75.1 224,75.1 
	224,67.4 201.7,67.4 201.7,105.4 "/>
<path class="st0" d="M200,105.4v-7.6h-5.8c-2.6,0-5.7,0.1-7.7,0.1c1.1-1.8,3.3-5.6,4.9-8.5l8.6-15.3v-6.8h-23.8v7.6h5.9
	c2.6,0,5.8-0.1,7.8-0.1c-1.1,1.8-3.3,5.6-4.9,8.4l-8.8,15.3v6.8L200,105.4z"/>
<rect x="165.3" y="67.4" class="st0" width="9.2" height="38.1"/>
<polygon class="st0" points="163.6,105.4 163.6,97.7 149.9,97.7 149.9,89.4 158.6,89.4 158.6,81.7 149.9,81.7 149.9,75.1 
	163.6,75.1 163.6,67.4 140.9,67.4 140.9,105.4 "/>
<path class="st0" d="M141.1,67.4h-8.9l-0.8,7c-0.5,4.8-1.2,11.2-1.5,16c-0.4-4.7-1.3-11.2-2-15.9l-1.1-7H119l-1,7
	c-0.7,4.7-1.6,11.2-2,15.9c-0.3-4.8-0.9-11.2-1.5-16l-0.9-7h-8.9l6.6,38.1h8.3l1.2-7.5c1-5.8,1.8-12.1,2.1-15.5
	c0.2,3.3,1.1,9.7,2.1,15.5l1.2,7.5h8.4L141.1,67.4z"/>
<polygon class="st0" points="105,105.4 105,67.4 95.8,67.4 95.8,81.6 88.2,81.6 88.2,67.4 79,67.4 79,105.4 88.2,105.4 88.2,89.5 
	95.8,89.5 95.8,105.4 "/>
<path class="st0" d="M77.3,94.9L68.9,92c-1,4.7-1.7,6.2-3.9,6.2c-3,0-4.2-3.1-4.2-11.9s1.2-11.7,4.1-11.7c2.2,0,2.8,2.2,3.5,6.4
	l8.8-2.4C75.7,71.3,73,66.8,65,66.8c-8.5,0-13.5,6.5-13.5,19.7c0,12.8,4.5,19.6,13.4,19.6C72.4,106,75.7,101.8,77.3,94.9"/>
<path class="st0" d="M50.3,94.8c0-6.4-2.8-9.5-10.5-12.9C36,80.3,35,79.1,35,77.1c-0.1-1.4,1.1-2.7,2.5-2.7c0.1,0,0.1,0,0.2,0
	c2.4,0,3.3,1,5.9,4.1l6.3-5.7c-3.2-3.9-6.1-6-12-6c-7.3,0-11.8,4.9-11.8,11.1c0,6,2.8,8.8,10.3,12.2c4.3,1.9,4.9,3.2,4.9,5.3
	s-1.3,3-3.3,3s-3.9-1.6-6.5-4.6l-6.2,5.6c3.2,4.2,6.6,6.6,12.6,6.6C45.1,106,50.3,101.9,50.3,94.8"/>
<path class="st0" d="M247.4,65.2v-38h-8.5v8.5c0,3.5,0.1,8.8,0.3,10.8c-1.4-3.7-3.1-7.2-5.1-10.7l-4.8-8.7h-7.9v38h8.6V54.5
	c0-3.6-0.1-8.4-0.3-10.6c1.4,3.6,3.1,7,4.9,10.4l5.6,10.9C240.2,65.2,247.4,65.2,247.4,65.2z"/>
<polygon class="st0" points="219.7,65.2 219.7,57.5 206.4,57.5 206.4,49.2 215.1,49.2 215.1,41.5 206.4,41.5 206.4,35 219.7,35 
	219.7,27.2 197.4,27.2 197.4,65.2 "/>
<polygon class="st0" points="195.7,65.2 195.7,27.2 186.5,27.2 186.5,41.4 178.9,41.4 178.9,27.2 169.7,27.2 169.7,65.2 178.9,65.2 
	178.9,49.3 186.5,49.3 186.5,65.2 "/>
<path class="st0" d="M168.7,54.7l-9.1-2.9c-1,4.7-1.7,6.2-3.9,6.2c-3,0-4.2-3.1-4.2-11.8s1.1-11.7,4.1-11.7c2.2,0,2.8,2.2,3.5,6.4
	l8.8-2.4c-1.5-7.3-4.2-11.9-12.2-11.9c-8.5,0-13.5,6.5-13.5,19.7c0,12.8,4.5,19.6,13.4,19.6C163.2,65.8,167,61.6,168.7,54.7"/>
<path class="st0" d="M111.6,52.2v-25h-9.2v25.9c0,3.2-1,4.8-3.3,4.8c-2.6,0-3.4-2.1-4.2-6l-8.7,2C87.3,61,90.8,65.7,99,65.7
	C107.5,65.8,111.6,60.9,111.6,52.2"/>
</svg>
