<?xml version="1.0" encoding="utf-8"?>
<!-- Generator: Adobe Illustrator 22.1.0, SVG Export Plug-In . SVG Version: 6.00 Build 0)  -->
<svg version="1.1" id="Logo" xmlns="http://www.w3.org/2000/svg" xmlns:xlink="http://www.w3.org/1999/xlink" x="0px" y="0px"
	 viewBox="0 0 226.2 100.2" style="enable-background:new 0 0 226.2 100.2;" xml:space="preserve">
<style type="text/css">
	.st0{fill:#007AA5;}
</style>
<path class="st0" d="M101.6,0.3C93.1,0.3,88,6.5,88,20c0,13.4,5,19.6,13.5,19.6c8.6,0,13.7-6.3,13.7-19.7S110.1,0.3,101.6,0.3
	 M101.6,31.7c-2.8,0-4.3-2.7-4.3-11.9s1.4-11.7,4.2-11.7c2.8,0,4.3,2.7,4.3,11.9C105.8,29.1,104.4,31.7,101.6,31.7"/>
<path class="st0" d="M225.8,79.1l-5.6-16.4c3.1-1.9,5-5.1,5-10c0-8.5-4.9-11.6-11.8-11.6h-13.2v38.1h8.9V64.6h2.4l4.5,14.6
	L225.8,79.1L225.8,79.1z M216.2,52.9c0,3.2-1,4.7-3.6,4.7h-3.4v-9.3h3.6C215.3,48.3,216.2,49.8,216.2,52.9"/>
<polygon class="st0" points="198.5,79.1 198.5,71.4 185.3,71.4 185.3,63.1 193.9,63.1 193.9,55.4 185.3,55.4 185.3,48.8 198.6,48.8 
	198.6,41.1 176.3,41.1 176.3,79.1 "/>
<path class="st0" d="M174.5,79.1v-7.5h-5.8c-2.6,0-5.7,0.1-7.7,0.1c1.1-1.8,3.3-5.5,4.9-8.5l8.6-15.3V41h-23.7v7.6h5.9
	c2.6,0,5.8-0.1,7.8-0.1c-1.1,1.8-3.3,5.6-4.9,8.4l-8.8,15.3V79L174.5,79.1L174.5,79.1z"/>
<rect x="139.9" y="41.1" class="st0" width="9.2" height="38.1"/>
<polygon class="st0" points="138.2,79.1 138.2,71.4 124.5,71.4 124.5,63.1 133.2,63.1 133.2,55.4 124.5,55.4 124.5,48.8 138.2,48.8 
	138.2,41.1 115.5,41.1 115.5,79.1 "/>
<path class="st0" d="M115.7,41.1h-8.9l-0.8,7c-0.5,4.8-1.2,11.2-1.5,16c-0.4-4.7-1.3-11.2-2-15.9l-1.1-7h-7.8l-1,7
	c-0.7,4.7-1.6,11.2-2,15.9c-0.3-4.8-0.9-11.3-1.5-16l-0.9-7h-8.9l6.6,38.1h8.3l1.2-7.5c1-5.8,1.9-12.1,2.1-15.5
	c0.2,3.3,1.1,9.7,2.1,15.5l1.2,7.5h8.4L115.7,41.1z"/>
<polygon class="st0" points="79.6,79.1 79.6,41.1 70.4,41.1 70.4,55.3 62.8,55.3 62.8,41.1 53.6,41.1 53.6,79.1 62.8,79.1 
	62.8,63.2 70.4,63.2 70.4,79.1 "/>
<path class="st0" d="M51.9,68.6l-8.4-2.9c-1,4.7-1.7,6.2-3.9,6.2c-3,0-4.2-3.1-4.2-11.9c0-8.6,1.2-11.7,4.1-11.7
	c2.2,0,2.8,2.2,3.5,6.4l8.8-2.4c-1.5-7.3-4.2-11.8-12.2-11.8c-8.5,0-13.5,6.5-13.5,19.7c0,12.8,4.5,19.6,13.4,19.6
	C47,79.7,50.2,75.5,51.9,68.6"/>
<path class="st0" d="M24.9,68.5c0-6.4-2.8-9.5-10.5-12.9c-3.8-1.6-4.8-2.8-4.8-4.8c0-1.4,1-2.7,2.7-2.7c2.4,0,3.3,1,5.9,4.1l6.3-5.7
	c-3.1-3.9-6.1-6-12-6c-7.3,0-11.8,4.9-11.8,11.1c0,6,2.8,8.9,10.3,12.2c4.3,1.9,4.9,3.2,4.9,5.3s-1.4,3-3.3,3
	c-1.8,0-3.9-1.6-6.5-4.6l-6.2,5.6c3.1,4.2,6.6,6.6,12.5,6.6C19.7,79.7,24.9,75.7,24.9,68.5"/>
<path class="st0" d="M222,38.9v-38h-8.5v8.5c0,3.5,0.1,8.8,0.3,10.8c-0.7-2.1-2.9-6.7-5.1-10.7l-4.8-8.7H196v38h8.5V28.2
	c0-3.6-0.1-8.4-0.3-10.6c0.8,2.2,2.8,6.3,4.9,10.4l5.6,10.9H222z"/>
<polygon class="st0" points="194.3,38.9 194.3,31.2 181,31.2 181,22.9 189.7,22.9 189.7,15.2 181,15.2 181,8.7 194.3,8.7 194.3,0.9 
	172,0.9 172,38.9 "/>
<polygon class="st0" points="170.3,38.9 170.3,0.9 161.1,0.9 161.1,15.1 153.4,15.1 153.4,0.9 144.3,0.9 144.3,38.9 153.4,38.9 
	153.4,23 161.1,23 161.1,38.9 "/>
<path class="st0" d="M143.3,28.4l-9.1-2.9c-1,4.7-1.7,6.2-3.9,6.2c-3,0-4.2-3.1-4.2-11.9c0-8.6,1.1-11.7,4.1-11.7
	c2.2,0,2.8,2.2,3.5,6.4l8.8-2.4c-1.5-7.3-4.2-11.8-12.2-11.8c-8.5,0-13.5,6.5-13.5,19.7c0,12.8,4.5,19.6,13.4,19.6
	C137.8,39.5,141.6,35.3,143.3,28.4"/>
<path class="st0" d="M86.2,25.9v-25H77v25.9c0,3.2-1,4.8-3.3,4.8c-2.6,0-3.4-2.1-4.2-6l-8.7,2.1c1.1,7.1,4.6,11.9,12.8,11.9
	C82.2,39.5,86.2,34.6,86.2,25.9"/>
<g>
	<path class="st0" d="M60.8,84.8H65c0.9,0,1.6,0.1,2.2,0.4c0.5,0.3,1,0.7,1.3,1.3c0.3,0.5,0.5,1.2,0.6,2s0.2,1.6,0.2,2.6
		c0,1.1-0.1,2.1-0.2,2.9s-0.4,1.5-0.7,2c-0.3,0.5-0.8,0.9-1.3,1.2c-0.6,0.3-1.3,0.4-2.1,0.4h-4.1L60.8,84.8L60.8,84.8z M63.4,95.6
		h1.2c0.4,0,0.8-0.1,1.1-0.2c0.3-0.2,0.5-0.4,0.7-0.8s0.3-0.8,0.3-1.4c0.1-0.6,0.1-1.3,0.1-2.2c0-0.7,0-1.4-0.1-1.9
		c0-0.5-0.1-1-0.3-1.4s-0.4-0.6-0.7-0.8c-0.3-0.2-0.7-0.3-1.2-0.3h-1.1V95.6z"/>
	<path class="st0" d="M75.9,96.4L75.9,96.4c-0.3,0.5-0.6,0.8-1.1,1c-0.4,0.2-0.9,0.3-1.4,0.3c-0.8,0-1.4-0.2-1.8-0.6S71,96,71,95
		v-7.1h2.5v6.6c0,0.5,0.1,0.9,0.3,1c0.2,0.2,0.4,0.3,0.8,0.3c0.9,0,1.3-0.5,1.3-1.6v-6.4h2.5v9.6H76L75.9,96.4L75.9,96.4z"/>
	<path class="st0" d="M84.2,84.8h2.5v4l0,0c0.3-0.4,0.6-0.7,0.9-0.9c0.3-0.2,0.7-0.3,1.2-0.3c1,0,1.8,0.4,2.2,1.2
		c0.5,0.8,0.7,2.1,0.7,3.9s-0.2,3.1-0.7,3.9s-1.2,1.2-2.2,1.2c-0.5,0-0.9-0.1-1.3-0.3c-0.3-0.2-0.6-0.5-0.9-1l0,0v1h-2.4
		C84.2,97.5,84.2,84.8,84.2,84.8z M86.6,92.7c0,1.1,0.1,1.8,0.2,2.4c0.2,0.5,0.5,0.8,1.1,0.8c0.5,0,0.9-0.3,1-0.8
		c0.2-0.5,0.2-1.3,0.2-2.4c0-1-0.1-1.8-0.2-2.4c-0.2-0.5-0.5-0.8-1-0.8s-0.9,0.3-1.1,0.8C86.7,90.9,86.6,91.7,86.6,92.7z"/>
	<path class="st0" d="M93.2,84.6h2.5v2.1h-2.5V84.6z M93.2,87.9h2.5v9.6h-2.5V87.9z"/>
	<path class="st0" d="M99.2,94.4v0.3c0,0.4,0.1,0.8,0.3,1c0.2,0.3,0.5,0.4,1,0.4c0.4,0,0.7-0.1,0.9-0.3c0.2-0.2,0.3-0.5,0.3-0.9
		c0-0.3-0.1-0.5-0.3-0.7c-0.2-0.2-0.4-0.3-0.6-0.4l-1.7-0.6c-0.7-0.2-1.2-0.6-1.5-1s-0.5-1-0.5-1.7c0-0.4,0.1-0.8,0.2-1.1
		c0.1-0.4,0.3-0.7,0.6-0.9c0.3-0.3,0.7-0.5,1.1-0.6c0.4-0.2,1-0.2,1.6-0.2c1.1,0,2,0.2,2.5,0.7s0.8,1.2,0.8,2v0.4h-2.2
		c0-0.5-0.1-0.9-0.2-1.1c-0.2-0.2-0.4-0.3-0.9-0.3c-0.3,0-0.6,0.1-0.8,0.3c-0.2,0.2-0.3,0.4-0.3,0.8c0,0.2,0.1,0.5,0.2,0.6
		c0.1,0.2,0.4,0.4,0.9,0.5l1.5,0.5c0.8,0.3,1.3,0.6,1.6,1s0.5,1,0.5,1.7c0,0.5-0.1,0.9-0.3,1.3s-0.4,0.7-0.7,0.9
		c-0.3,0.2-0.7,0.4-1.1,0.6c-0.4,0.1-0.9,0.2-1.4,0.2c-0.7,0-1.3-0.1-1.7-0.2c-0.5-0.1-0.8-0.3-1.1-0.6c-0.3-0.3-0.5-0.6-0.6-1
		s-0.2-0.8-0.2-1.3v-0.3C97.1,94.4,99.2,94.4,99.2,94.4z"/>
	<path class="st0" d="M105.9,85.1h2.5v2.8h1.4v1.7h-1.4v5.2c0,0.4,0.1,0.7,0.2,0.8c0.1,0.2,0.3,0.2,0.7,0.2c0.1,0,0.2,0,0.3,0
		s0.2,0,0.3,0v1.7c-0.3,0-0.5,0-0.8,0.1c-0.3,0-0.5,0-0.8,0c-0.5,0-0.9,0-1.2-0.1s-0.5-0.2-0.7-0.4c-0.2-0.2-0.3-0.5-0.3-0.8
		c-0.1-0.3-0.1-0.7-0.1-1.2v-5.5h-1.4v-1.7h1.3V85.1z"/>
	<path class="st0" d="M113.2,94.7V97c0,0.5,0,0.9-0.1,1.3s-0.2,0.7-0.4,1s-0.4,0.5-0.7,0.7s-0.7,0.3-1.2,0.3V99
		c0.3-0.1,0.5-0.2,0.7-0.5s0.2-0.6,0.2-0.9v-0.3h-0.9v-2.6H113.2z"/>
	<path class="st0" d="M117.9,87.9h2.5l1.1,6.8l0,0l1.2-6.8h2.7l1.3,6.8l0,0l1.2-6.8h2.4l-2.1,9.6h-2.8l-1.3-6.8l0,0l-1.2,6.8H120
		L117.9,87.9z"/>
	<path class="st0" d="M131.2,90.9v-0.2c0-0.5,0.1-1,0.3-1.4s0.4-0.7,0.7-0.9s0.7-0.4,1.1-0.5c0.4-0.1,0.9-0.2,1.3-0.2
		c0.7,0,1.3,0.1,1.8,0.2s0.8,0.3,1.1,0.6c0.3,0.3,0.4,0.6,0.5,0.9c0.1,0.4,0.1,0.8,0.1,1.2v5.1c0,0.5,0,0.8,0.1,1.1
		c0,0.3,0.1,0.5,0.2,0.8H136c-0.1-0.2-0.1-0.3-0.2-0.5c0-0.2-0.1-0.3-0.1-0.5l0,0c-0.3,0.5-0.6,0.8-1,1s-0.9,0.3-1.5,0.3
		c-0.4,0-0.8-0.1-1.1-0.3c-0.3-0.2-0.5-0.4-0.7-0.6c-0.2-0.3-0.3-0.6-0.4-0.9c-0.1-0.3-0.1-0.7-0.1-1c0-0.5,0-0.8,0.1-1.2
		c0.1-0.3,0.2-0.6,0.4-0.8c0.2-0.2,0.4-0.4,0.8-0.6c0.3-0.2,0.7-0.3,1.1-0.4l1.4-0.4c0.4-0.1,0.6-0.2,0.8-0.4
		c0.1-0.2,0.2-0.4,0.2-0.7c0-0.4-0.1-0.7-0.3-0.9c-0.2-0.2-0.5-0.3-0.9-0.3s-0.7,0.1-0.9,0.3c-0.2,0.2-0.3,0.5-0.3,0.9v0.3H131.2z
		 M135.7,92.7c-0.2,0.1-0.3,0.2-0.5,0.3c-0.2,0.1-0.4,0.1-0.5,0.2c-0.5,0.1-0.9,0.3-1.1,0.5c-0.2,0.3-0.3,0.6-0.3,1s0.1,0.7,0.2,0.9
		c0.1,0.3,0.4,0.4,0.7,0.4c0.2,0,0.3,0,0.5-0.1s0.3-0.1,0.5-0.3c0.1-0.1,0.3-0.3,0.4-0.5c0.1-0.2,0.1-0.4,0.1-0.7L135.7,92.7
		L135.7,92.7z"/>
	<path class="st0" d="M141.6,94.4v0.3c0,0.4,0.1,0.8,0.3,1c0.2,0.3,0.5,0.4,1,0.4c0.4,0,0.7-0.1,0.9-0.3c0.2-0.2,0.3-0.5,0.3-0.9
		c0-0.3-0.1-0.5-0.3-0.7s-0.4-0.3-0.6-0.4l-1.7-0.6c-0.7-0.2-1.2-0.6-1.5-1s-0.5-1-0.5-1.7c0-0.4,0.1-0.8,0.2-1.1
		c0.1-0.4,0.3-0.7,0.6-0.9c0.3-0.3,0.7-0.5,1.1-0.6c0.4-0.2,1-0.2,1.6-0.2c1.1,0,2,0.2,2.5,0.7s0.8,1.2,0.8,2v0.4h-2.2
		c0-0.5-0.1-0.9-0.2-1.1c-0.2-0.2-0.4-0.3-0.9-0.3c-0.3,0-0.6,0.1-0.8,0.3c-0.2,0.2-0.3,0.4-0.3,0.8c0,0.2,0.1,0.5,0.2,0.6
		c0.1,0.2,0.4,0.4,0.9,0.5l1.5,0.5c0.8,0.3,1.3,0.6,1.6,1s0.5,1,0.5,1.7c0,0.5-0.1,0.9-0.3,1.3s-0.4,0.7-0.7,0.9
		c-0.3,0.2-0.7,0.4-1.1,0.6c-0.4,0.1-0.9,0.2-1.4,0.2c-0.7,0-1.3-0.1-1.7-0.2c-0.5-0.1-0.8-0.3-1.1-0.6c-0.3-0.3-0.5-0.6-0.6-1
		s-0.2-0.8-0.2-1.3v-0.3C139.5,94.4,141.6,94.4,141.6,94.4z"/>
	<path class="st0" d="M157,96.5L157,96.5c-0.3,0.5-0.6,0.8-1,1c-0.3,0.2-0.8,0.3-1.3,0.3c-1,0-1.8-0.4-2.2-1.2
		c-0.5-0.8-0.7-2.1-0.7-3.9s0.2-3.1,0.7-3.9s1.2-1.2,2.2-1.2c0.5,0,0.9,0.1,1.2,0.3c0.3,0.2,0.6,0.5,0.9,0.9l0,0v-4h2.5v12.8h-2.4
		v-1.1L157,96.5L157,96.5z M154.3,92.7c0,1.1,0.1,1.8,0.2,2.4c0.2,0.5,0.5,0.8,1,0.8s0.9-0.3,1.1-0.8c0.2-0.5,0.2-1.3,0.2-2.4
		c0-1-0.1-1.8-0.2-2.4c-0.2-0.5-0.5-0.8-1.1-0.8c-0.5,0-0.9,0.3-1,0.8C154.4,90.9,154.3,91.7,154.3,92.7z"/>
	<path class="st0" d="M165.9,96.4L165.9,96.4c-0.3,0.5-0.6,0.8-1.1,1c-0.4,0.2-0.9,0.3-1.4,0.3c-0.8,0-1.4-0.2-1.8-0.6
		c-0.4-0.4-0.6-1.1-0.6-2.1v-7.1h2.5v6.6c0,0.5,0.1,0.9,0.3,1c0.2,0.2,0.4,0.3,0.8,0.3c0.9,0,1.3-0.5,1.3-1.6v-6.4h2.5v9.6H166v-1
		C166,96.4,165.9,96.4,165.9,96.4z"/>
	<path class="st0" d="M176.3,93.1v0.8c0,0.3,0,0.6,0.1,0.8c0,0.3,0.1,0.5,0.2,0.7c0.1,0.2,0.2,0.4,0.4,0.5s0.3,0.2,0.6,0.2
		c0.4,0,0.7-0.1,0.9-0.4s0.3-0.8,0.4-1.4h2.2c0,1.1-0.3,2-0.9,2.6c-0.5,0.6-1.4,0.9-2.6,0.9c-0.9,0-1.6-0.2-2.1-0.5
		s-0.9-0.7-1.1-1.2c-0.2-0.5-0.4-1-0.4-1.7c-0.1-0.6-0.1-1.2-0.1-1.8c0-0.6,0-1.3,0.1-1.9s0.3-1.1,0.5-1.6c0.3-0.5,0.7-0.8,1.2-1.1
		c0.5-0.3,1.2-0.4,2-0.4c0.7,0,1.3,0.1,1.8,0.3c0.5,0.2,0.8,0.6,1.1,1s0.4,0.9,0.5,1.5s0.1,1.3,0.1,2V93L176.3,93.1L176.3,93.1z
		 M178.9,91.6c0-0.4,0-0.7-0.1-1c0-0.3-0.1-0.5-0.2-0.7c-0.1-0.2-0.2-0.3-0.4-0.4s-0.4-0.2-0.6-0.2c-0.3,0-0.5,0.1-0.6,0.2
		c-0.2,0.1-0.3,0.3-0.4,0.4c-0.1,0.2-0.2,0.4-0.2,0.6s-0.1,0.5-0.1,0.7v0.4H178.9z"/>
	<path class="st0" d="M182.5,87.9h2.4v1.3l0,0c0.2-0.5,0.6-0.8,0.9-1.1c0.4-0.3,0.8-0.4,1.3-0.4c0.1,0,0.1,0,0.2,0
		c0.1,0,0.2,0,0.2,0v2.4c-0.1,0-0.3,0-0.4,0c-0.1,0-0.3,0-0.4,0c-0.2,0-0.4,0-0.6,0.1c-0.2,0.1-0.4,0.2-0.6,0.3
		c-0.2,0.1-0.3,0.3-0.4,0.5c-0.1,0.2-0.2,0.5-0.2,0.8v5.8h-2.5v-9.7L182.5,87.9L182.5,87.9z"/>
	<path class="st0" d="M188.6,84.8h2.5v12.8h-2.5V84.8z"/>
	<path class="st0" d="M194.9,93.1v0.8c0,0.3,0,0.6,0.1,0.8c0,0.3,0.1,0.5,0.2,0.7c0.1,0.2,0.2,0.4,0.4,0.5s0.3,0.2,0.6,0.2
		c0.4,0,0.7-0.1,0.9-0.4s0.3-0.8,0.4-1.4h2.2c0,1.1-0.3,2-0.9,2.6c-0.5,0.6-1.4,0.9-2.6,0.9c-0.9,0-1.6-0.2-2.1-0.5
		s-0.9-0.7-1.1-1.2c-0.2-0.5-0.4-1-0.4-1.7c-0.1-0.6-0.1-1.2-0.1-1.8c0-0.6,0-1.3,0.1-1.9s0.3-1.1,0.5-1.6c0.3-0.5,0.7-0.8,1.2-1.1
		c0.5-0.3,1.2-0.4,2-0.4c0.7,0,1.3,0.1,1.8,0.3c0.5,0.2,0.8,0.6,1.1,1s0.4,0.9,0.5,1.5s0.1,1.3,0.1,2V93L194.9,93.1L194.9,93.1z
		 M197.4,91.6c0-0.4,0-0.7-0.1-1c0-0.3-0.1-0.5-0.2-0.7c-0.1-0.2-0.2-0.3-0.4-0.4s-0.4-0.2-0.6-0.2c-0.2,0-0.5,0.1-0.6,0.2
		c-0.2,0.1-0.3,0.3-0.4,0.4c-0.1,0.2-0.2,0.4-0.2,0.6s-0.1,0.5-0.1,0.7v0.4H197.4z"/>
	<path class="st0" d="M201.1,84.8h2.5v4l0,0c0.3-0.4,0.6-0.7,0.9-0.9c0.3-0.2,0.7-0.3,1.2-0.3c1,0,1.8,0.4,2.2,1.2
		c0.5,0.8,0.7,2.1,0.7,3.9s-0.2,3.1-0.7,3.9s-1.2,1.2-2.2,1.2c-0.5,0-0.9-0.1-1.3-0.3c-0.3-0.2-0.6-0.5-0.9-1l0,0v1h-2.4V84.8z
		 M203.5,92.7c0,1.1,0.1,1.8,0.2,2.4c0.2,0.5,0.5,0.8,1.1,0.8c0.5,0,0.9-0.3,1-0.8c0.2-0.5,0.2-1.3,0.2-2.4c0-1-0.1-1.8-0.2-2.4
		c-0.2-0.5-0.5-0.8-1-0.8s-0.9,0.3-1.1,0.8C203.6,90.9,203.5,91.7,203.5,92.7z"/>
	<path class="st0" d="M211.8,94.4v0.3c0,0.4,0.1,0.8,0.3,1c0.2,0.3,0.5,0.4,1,0.4c0.4,0,0.7-0.1,0.9-0.3c0.2-0.2,0.3-0.5,0.3-0.9
		c0-0.3-0.1-0.5-0.3-0.7s-0.4-0.3-0.6-0.4l-1.7-0.6c-0.7-0.2-1.2-0.6-1.5-1s-0.5-1-0.5-1.7c0-0.4,0.1-0.8,0.2-1.1
		c0.1-0.4,0.3-0.7,0.6-0.9c0.3-0.3,0.7-0.5,1.1-0.6c0.4-0.2,1-0.2,1.6-0.2c1.1,0,2,0.2,2.5,0.7s0.8,1.2,0.8,2v0.4h-2.2
		c0-0.5-0.1-0.9-0.2-1.1c-0.2-0.2-0.4-0.3-0.9-0.3c-0.3,0-0.6,0.1-0.8,0.3c-0.2,0.2-0.3,0.4-0.3,0.8c0,0.2,0.1,0.5,0.2,0.6
		c0.1,0.2,0.4,0.4,0.8,0.5l1.5,0.5c0.8,0.3,1.3,0.6,1.6,1s0.5,1,0.5,1.7c0,0.5-0.1,0.9-0.3,1.3s-0.4,0.7-0.7,0.9
		c-0.3,0.2-0.7,0.4-1.1,0.6c-0.4,0.1-0.9,0.2-1.4,0.2c-0.7,0-1.3-0.1-1.7-0.2c-0.5-0.1-0.8-0.3-1.1-0.6c-0.3-0.3-0.5-0.6-0.6-1
		s-0.2-0.8-0.2-1.3v-0.3C209.6,94.4,211.8,94.4,211.8,94.4z"/>
	<path class="st0" d="M218.5,85.1h2.5v2.8h1.4v1.7H221v5.2c0,0.4,0.1,0.7,0.2,0.8c0.1,0.2,0.3,0.2,0.7,0.2c0.1,0,0.2,0,0.3,0
		s0.2,0,0.3,0v1.7c-0.3,0-0.5,0-0.8,0.1c-0.3,0-0.5,0-0.8,0c-0.5,0-0.9,0-1.2-0.1s-0.5-0.2-0.7-0.4c-0.2-0.2-0.3-0.5-0.3-0.8
		c-0.1-0.3-0.1-0.7-0.1-1.2v-5.5h-1.3v-1.7h1.3L218.5,85.1L218.5,85.1z"/>
	<path class="st0" d="M225.8,94.7v2.8h-2.4v-2.8H225.8z"/>
</g>
</svg>
